<svg width="111" height="111" viewBox="0 0 111 111" fill="none" xmlns="http://www.w3.org/2000/svg">
<path d="M10.1279 55.5893C10.1279 79.1762 27.8523 98.6125 50.6757 101.24C54.0436 101.628 57.3079 100.192 59.705 97.7888C62.7 94.786 62.7 89.9175 59.705 86.9146C57.3079 84.5113 55.3537 80.9261 57.1615 78.0509C64.3879 66.5577 101.795 92.9522 101.795 55.5893C101.795 30.2102 81.2743 9.63629 55.9613 9.63629C30.6482 9.63629 10.1279 30.2102 10.1279 55.5893Z" stroke="white" stroke-width="1.5"/>
<circle cx="81.1689" cy="53.1782" r="6.125" stroke="white" stroke-width="1.5"/>
<circle cx="30.7529" cy="53.1782" r="6.125" stroke="white" stroke-width="1.5"/>
<path d="M44.8916 26.4272C48.2743 26.4272 51.0166 29.1695 51.0166 32.5522C51.0166 35.935 48.2743 38.6772 44.8916 38.6772C41.5089 38.6772 38.7666 35.935 38.7666 32.5522C38.7666 29.1695 41.5089 26.4272 44.8916 26.4272Z" stroke="white" stroke-width="1.5"/>
<path d="M67.4189 26.4282C70.8017 26.4282 73.5439 29.1704 73.5439 32.5532C73.5439 35.9359 70.8017 38.6782 67.4189 38.6782C64.0362 38.6782 61.2939 35.9359 61.2939 32.5532C61.2939 29.1704 64.0362 26.4282 67.4189 26.4282Z" stroke="white" stroke-width="1.5"/>
</svg>
