<svg width="16" height="16" viewBox="0 0 16 16" fill="none" xmlns="http://www.w3.org/2000/svg">
<path d="M12.2514 3.83153C11.3021 2.88224 10.3044 2.0571 9.30157 1.37174C10.4494 0.787521 11.5364 0.436328 12.4793 0.327529C13.6685 0.190316 14.5472 0.443008 15.0936 0.989354C15.6399 1.5357 15.8926 2.41439 15.7554 3.60362C15.6466 4.54659 15.2954 5.63352 14.7112 6.78138C14.0258 5.7785 13.2007 4.78083 12.2514 3.83153Z" fill="#1C274C"/>
<path fill-rule="evenodd" clip-rule="evenodd" d="M11.3675 4.71541C12.4286 5.77656 13.3189 6.89521 14.0163 7.99948C13.3189 9.10365 12.4287 10.2222 11.3676 11.2833C10.3065 12.3445 9.18777 13.2347 8.08348 13.9322C6.97925 13.2347 5.86063 12.3445 4.79951 11.2834C3.7384 10.2223 2.84821 9.10369 2.15078 7.99947C2.84823 6.89518 3.73848 5.77648 4.79967 4.71529C5.86075 3.65422 6.97931 2.76404 8.08348 2.06663C9.18772 2.76406 10.3063 3.65427 11.3675 4.71541ZM8.08333 10.0833C9.23393 10.0833 10.1667 9.15051 10.1667 7.99992C10.1667 6.84933 9.23393 5.91658 8.08333 5.91658C6.93274 5.91658 6 6.84933 6 7.99992C6 9.15051 6.93274 10.0833 8.08333 10.0833Z" fill="#1C274C"/>
<path d="M9.3016 14.627C10.3045 13.9417 11.3022 13.1165 12.2515 12.1672C13.2007 11.218 14.0258 10.2204 14.7112 9.21759C15.2953 10.3654 15.6465 11.4523 15.7552 12.3952C15.8924 13.5844 15.6397 14.463 15.0934 15.0093C14.5471 15.5557 13.6684 15.8084 12.4792 15.6712C11.5363 15.5624 10.4494 15.2112 9.3016 14.627Z" fill="#1C274C"/>
<path d="M3.91562 12.1673C4.86489 13.1165 5.86251 13.9417 6.86535 14.627C5.71758 15.2112 4.63075 15.5623 3.68786 15.6711C2.4987 15.8082 1.62007 15.5555 1.07375 15.0092C0.527423 14.4629 0.27473 13.5843 0.411905 12.3951C0.520672 11.4522 0.871801 10.3654 1.45593 9.21761C2.14127 10.2204 2.96638 11.218 3.91562 12.1673Z" fill="#1C274C"/>
<path d="M1.4559 6.78136C2.14128 5.77845 2.96646 4.78074 3.91579 3.83141C4.86501 2.88219 5.86259 2.05709 6.86538 1.37176C5.71756 0.787582 4.63069 0.43642 3.68776 0.327637C2.49857 0.190444 1.61991 0.443136 1.07358 0.989471C0.527242 1.53581 0.27455 2.41448 0.411753 3.60369C0.520543 4.54664 0.871715 5.63353 1.4559 6.78136Z" fill="#1C274C"/>
</svg>
