<svg width="30" height="25" viewBox="0 0 30 25" fill="none" xmlns="http://www.w3.org/2000/svg">
<path d="M2.02148 10.7471C11.2529 6.68153 23.1992 1.7248 24.8482 1.03876C29.1738 -0.756869 30.501 -0.412744 29.8392 3.56381C29.364 6.42196 27.9926 15.8847 26.8997 21.7745C26.2511 25.2672 24.796 25.6812 22.508 24.1701C21.4077 23.4429 15.854 19.7664 14.6486 18.9031C13.5483 18.1163 12.0308 17.17 13.9339 15.306C14.6112 14.642 19.0506 10.3985 22.5095 7.09551C22.9627 6.66167 22.3934 5.94916 21.8704 6.29696C17.2084 9.39188 10.7446 13.6876 9.92198 14.2471C8.67917 15.092 7.48557 15.4795 5.34298 14.8633C3.7241 14.3979 2.14267 13.8427 1.52715 13.6309C-0.843151 12.8162 -0.280509 11.7611 2.02148 10.7471Z" fill="white"/>
</svg>
