<svg width="36" height="36" viewBox="0 0 36 36" fill="none" xmlns="http://www.w3.org/2000/svg">
<path fill-rule="evenodd" clip-rule="evenodd" d="M16.2016 3.85451C16.3187 4.43166 15.9458 4.9945 15.3687 5.11164C10.2174 6.15721 6.15721 10.2173 5.11156 15.3686C4.9944 15.9458 4.43156 16.3187 3.85441 16.2015C3.27726 16.0843 2.90437 15.5215 3.02152 14.9444C4.23756 8.95368 8.95376 4.23754 14.9445 3.02159C15.5216 2.90445 16.0844 3.27736 16.2016 3.85451Z" fill="white"/>
<path fill-rule="evenodd" clip-rule="evenodd" d="M3.85464 19.7986C4.43179 19.6814 4.99463 20.0543 5.11179 20.6315C6.15744 25.7827 10.2176 29.8429 15.3689 30.8884C15.9461 31.0056 16.319 31.5684 16.2018 32.1456C16.0847 32.7227 15.5218 33.0956 14.9447 32.9785C8.95399 31.7625 4.23779 27.0464 3.02175 21.0557C2.90459 20.4786 3.27749 19.9157 3.85464 19.7986Z" fill="white"/>
<path fill-rule="evenodd" clip-rule="evenodd" d="M19.7984 3.85443C19.9156 3.27728 20.4784 2.90437 21.0555 3.02152C27.0462 4.23747 31.7624 8.95361 32.9785 14.9443C33.0956 15.5214 32.7227 16.0843 32.1456 16.2014C31.5684 16.3186 31.0056 15.9457 30.8884 15.3685C29.8428 10.2173 25.7826 6.15714 20.6313 5.11157C20.0542 4.99442 19.6813 4.43158 19.7984 3.85443Z" fill="white"/>
<path fill-rule="evenodd" clip-rule="evenodd" d="M32.1456 19.7986C32.7227 19.9157 33.0956 20.4786 32.9785 21.0557C31.7624 27.0464 27.0462 31.7625 21.0555 32.9785C20.4784 33.0956 19.9156 32.7227 19.7984 32.1456C19.6813 31.5684 20.0542 31.0056 20.6313 30.8884C25.7826 29.8429 29.8428 25.7827 30.8884 20.6315C31.0056 20.0543 31.5684 19.6814 32.1456 19.7986Z" fill="white"/>
<path fill-rule="evenodd" clip-rule="evenodd" d="M17.9999 29.3743C24.2817 29.3743 29.3741 24.2819 29.3741 18C29.3741 11.7182 24.2817 6.62581 17.9999 6.62581C11.7181 6.62581 6.62568 11.7182 6.62568 18C6.62568 24.2819 11.7181 29.3743 17.9999 29.3743ZM13.4111 21.8081C13.7618 21.335 14.4296 21.2357 14.9027 21.5864C15.7871 22.242 16.8533 22.6208 17.9999 22.6208C19.1465 22.6208 20.2127 22.242 21.0971 21.5864C21.5702 21.2357 22.238 21.335 22.5887 21.8081C22.9394 22.2812 22.8401 22.9491 22.367 23.2998C21.1356 24.2125 19.6286 24.7535 17.9999 24.7535C16.3712 24.7535 14.8642 24.2125 13.6327 23.2998C13.1596 22.9491 13.0604 22.2812 13.4111 21.8081ZM22.9761 15.6008C22.9761 16.6314 22.4191 17.4669 21.732 17.4669C21.045 17.4669 20.488 16.6314 20.488 15.6008C20.488 14.5702 21.045 13.7347 21.732 13.7347C22.4191 13.7347 22.9761 14.5702 22.9761 15.6008ZM14.2677 17.4669C14.9548 17.4669 15.5118 16.6314 15.5118 15.6008C15.5118 14.5702 14.9548 13.7347 14.2677 13.7347C13.5807 13.7347 13.0237 14.5702 13.0237 15.6008C13.0237 16.6314 13.5807 17.4669 14.2677 17.4669Z" fill="white"/>
</svg>
