<svg width="363" height="266" viewBox="0 0 363 266" fill="none" xmlns="http://www.w3.org/2000/svg">
<path d="M271.711 265.14H331.961C348.529 265.14 361.961 251.709 361.961 235.14V199.14M91.2109 265.14H30.9609C14.3924 265.14 0.960938 251.709 0.960938 235.14V199.14M91.2109 1.14038H30.9609C14.3924 1.14038 0.960938 14.5718 0.960938 31.1404V67.1404M271.711 1.14038H331.961C348.529 1.14038 361.961 14.5718 361.961 31.1404V67.1404" stroke="white"/>
<path d="M106.136 173.14V161.62H110.624C111.312 161.62 111.898 161.762 112.384 162.044C112.874 162.327 113.248 162.7 113.504 163.164C113.765 163.623 113.896 164.119 113.896 164.652C113.896 165.276 113.736 165.823 113.416 166.292C113.096 166.762 112.664 167.084 112.12 167.26L112.104 166.868C112.845 167.066 113.421 167.428 113.832 167.956C114.242 168.484 114.448 169.114 114.448 169.844C114.448 170.516 114.309 171.098 114.032 171.588C113.76 172.079 113.365 172.46 112.848 172.732C112.336 173.004 111.728 173.14 111.024 173.14H106.136ZM107.576 171.78H110.752C111.178 171.78 111.56 171.703 111.896 171.548C112.232 171.388 112.496 171.164 112.688 170.876C112.885 170.588 112.984 170.242 112.984 169.836C112.984 169.447 112.896 169.098 112.72 168.788C112.549 168.479 112.306 168.234 111.992 168.052C111.682 167.866 111.322 167.772 110.912 167.772H107.576V171.78ZM107.576 166.428H110.608C110.949 166.428 111.256 166.356 111.528 166.212C111.805 166.063 112.024 165.855 112.184 165.588C112.349 165.322 112.432 165.01 112.432 164.652C112.432 164.156 112.264 163.751 111.928 163.436C111.592 163.122 111.152 162.964 110.608 162.964H107.576V166.428ZM123.114 164.5V173.14H121.738V166.772L117.21 173.14H116.034V164.5H117.41V170.78L121.946 164.5H123.114ZM124.714 175.06V171.964C125.2 171.964 125.546 171.807 125.754 171.492C125.962 171.172 126.13 170.647 126.258 169.916C126.344 169.458 126.413 168.967 126.466 168.444C126.52 167.922 126.565 167.34 126.602 166.7C126.645 166.055 126.685 165.322 126.722 164.5H132.674V171.964H133.514V175.06H132.154V173.14H126.074V175.06H124.714ZM126.906 171.964H131.25V165.676H128.01C127.994 166.055 127.973 166.452 127.946 166.868C127.92 167.279 127.888 167.69 127.85 168.1C127.818 168.511 127.778 168.9 127.73 169.268C127.688 169.631 127.637 169.956 127.578 170.244C127.509 170.644 127.429 170.983 127.338 171.26C127.248 171.538 127.104 171.772 126.906 171.964ZM138.864 173.38C138.016 173.38 137.275 173.194 136.64 172.82C136.011 172.442 135.52 171.916 135.168 171.244C134.816 170.567 134.64 169.778 134.64 168.876C134.64 167.932 134.813 167.116 135.16 166.428C135.507 165.735 135.989 165.202 136.608 164.828C137.232 164.45 137.963 164.26 138.8 164.26C139.669 164.26 140.408 164.46 141.016 164.86C141.629 165.26 142.088 165.831 142.392 166.572C142.701 167.314 142.835 168.196 142.792 169.22H141.352V168.708C141.336 167.647 141.12 166.855 140.704 166.332C140.288 165.804 139.669 165.54 138.848 165.54C137.968 165.54 137.299 165.823 136.84 166.388C136.381 166.954 136.152 167.764 136.152 168.82C136.152 169.839 136.381 170.628 136.84 171.188C137.299 171.748 137.952 172.028 138.8 172.028C139.371 172.028 139.867 171.898 140.288 171.636C140.709 171.375 141.04 170.999 141.28 170.508L142.648 170.98C142.312 171.743 141.805 172.335 141.128 172.756C140.456 173.172 139.701 173.38 138.864 173.38ZM135.672 169.22V168.076H142.056V169.22H135.672ZM148.253 173.38C147.394 173.38 146.653 173.186 146.029 172.796C145.41 172.407 144.933 171.868 144.597 171.18C144.261 170.492 144.093 169.703 144.093 168.812C144.093 167.906 144.264 167.111 144.605 166.428C144.946 165.746 145.429 165.215 146.053 164.836C146.677 164.452 147.41 164.26 148.253 164.26C149.117 164.26 149.861 164.455 150.485 164.844C151.109 165.228 151.586 165.764 151.917 166.452C152.253 167.135 152.421 167.922 152.421 168.812C152.421 169.714 152.253 170.508 151.917 171.196C151.581 171.879 151.101 172.415 150.477 172.804C149.853 173.188 149.112 173.38 148.253 173.38ZM148.253 172.028C149.149 172.028 149.816 171.73 150.253 171.132C150.69 170.535 150.909 169.762 150.909 168.812C150.909 167.836 150.688 167.06 150.245 166.484C149.802 165.903 149.138 165.612 148.253 165.612C147.65 165.612 147.154 165.748 146.765 166.02C146.376 166.292 146.085 166.668 145.893 167.148C145.701 167.628 145.605 168.183 145.605 168.812C145.605 169.783 145.829 170.562 146.277 171.148C146.725 171.735 147.384 172.028 148.253 172.028ZM157.378 173.14V164.5H161.058C161.276 164.5 161.511 164.514 161.762 164.54C162.018 164.562 162.25 164.602 162.458 164.66C162.922 164.783 163.303 165.036 163.602 165.42C163.906 165.799 164.058 166.279 164.058 166.86C164.058 167.186 164.007 167.468 163.906 167.708C163.81 167.948 163.671 168.156 163.49 168.332C163.41 168.412 163.322 168.484 163.226 168.548C163.13 168.612 163.034 168.663 162.938 168.7C163.124 168.732 163.314 168.804 163.506 168.916C163.81 169.082 164.047 169.314 164.218 169.612C164.394 169.911 164.482 170.292 164.482 170.756C164.482 171.343 164.34 171.828 164.058 172.212C163.775 172.591 163.386 172.852 162.89 172.996C162.682 173.055 162.452 173.095 162.202 173.116C161.951 173.132 161.708 173.14 161.474 173.14H157.378ZM158.818 171.98H161.394C161.506 171.98 161.639 171.97 161.794 171.948C161.954 171.927 162.095 171.9 162.218 171.868C162.495 171.788 162.695 171.639 162.818 171.42C162.946 171.202 163.01 170.964 163.01 170.708C163.01 170.367 162.914 170.09 162.722 169.876C162.535 169.663 162.287 169.53 161.978 169.476C161.866 169.444 161.743 169.426 161.61 169.42C161.482 169.415 161.367 169.412 161.266 169.412H158.818V171.98ZM158.818 168.236H160.962C161.111 168.236 161.268 168.228 161.434 168.212C161.599 168.191 161.743 168.156 161.866 168.108C162.111 168.018 162.29 167.868 162.402 167.66C162.519 167.447 162.578 167.215 162.578 166.964C162.578 166.687 162.514 166.444 162.386 166.236C162.263 166.023 162.074 165.876 161.818 165.796C161.647 165.732 161.455 165.698 161.242 165.692C161.034 165.682 160.9 165.676 160.842 165.676H158.818V168.236ZM173.26 173.38C172.449 173.38 171.767 173.18 171.212 172.78C170.657 172.375 170.236 171.828 169.948 171.14C169.665 170.447 169.524 169.671 169.524 168.812C169.524 167.943 169.665 167.164 169.948 166.476C170.236 165.788 170.657 165.247 171.212 164.852C171.772 164.458 172.457 164.26 173.268 164.26C174.068 164.26 174.756 164.46 175.332 164.86C175.913 165.255 176.359 165.796 176.668 166.484C176.977 167.172 177.132 167.948 177.132 168.812C177.132 169.676 176.977 170.452 176.668 171.14C176.359 171.828 175.913 172.375 175.332 172.78C174.756 173.18 174.065 173.38 173.26 173.38ZM169.284 176.98V164.5H170.556V170.86H170.716V176.98H169.284ZM173.084 172.076C173.655 172.076 174.127 171.932 174.5 171.644C174.873 171.356 175.153 170.967 175.34 170.476C175.527 169.98 175.62 169.426 175.62 168.812C175.62 168.204 175.527 167.655 175.34 167.164C175.159 166.674 174.876 166.284 174.492 165.996C174.113 165.708 173.631 165.564 173.044 165.564C172.484 165.564 172.02 165.703 171.652 165.98C171.284 166.252 171.009 166.634 170.828 167.124C170.647 167.61 170.556 168.172 170.556 168.812C170.556 169.442 170.644 170.004 170.82 170.5C171.001 170.991 171.279 171.378 171.652 171.66C172.025 171.938 172.503 172.076 173.084 172.076ZM181.342 173.38C180.696 173.38 180.155 173.263 179.718 173.028C179.286 172.788 178.958 172.474 178.734 172.084C178.515 171.695 178.406 171.268 178.406 170.804C178.406 170.351 178.491 169.959 178.662 169.628C178.838 169.292 179.083 169.015 179.398 168.796C179.712 168.572 180.088 168.396 180.526 168.268C180.936 168.156 181.395 168.06 181.902 167.98C182.414 167.895 182.931 167.818 183.454 167.748C183.976 167.679 184.464 167.612 184.918 167.548L184.406 167.844C184.422 167.076 184.267 166.508 183.942 166.14C183.622 165.772 183.067 165.588 182.278 165.588C181.755 165.588 181.296 165.708 180.902 165.948C180.512 166.183 180.238 166.567 180.078 167.1L178.726 166.692C178.934 165.935 179.336 165.34 179.934 164.908C180.531 164.476 181.318 164.26 182.294 164.26C183.078 164.26 183.75 164.402 184.31 164.684C184.875 164.962 185.28 165.383 185.526 165.948C185.648 166.215 185.726 166.506 185.758 166.82C185.79 167.13 185.806 167.455 185.806 167.796V173.14H184.542V171.068L184.838 171.26C184.512 171.959 184.056 172.487 183.47 172.844C182.888 173.202 182.179 173.38 181.342 173.38ZM181.558 172.188C182.07 172.188 182.512 172.098 182.886 171.916C183.264 171.73 183.568 171.487 183.798 171.188C184.027 170.884 184.176 170.554 184.246 170.196C184.326 169.93 184.368 169.634 184.374 169.308C184.384 168.978 184.39 168.724 184.39 168.548L184.886 168.764C184.422 168.828 183.966 168.89 183.518 168.948C183.07 169.007 182.646 169.071 182.246 169.14C181.846 169.204 181.486 169.282 181.166 169.372C180.931 169.447 180.71 169.543 180.502 169.66C180.299 169.778 180.134 169.93 180.006 170.116C179.883 170.298 179.822 170.524 179.822 170.796C179.822 171.031 179.88 171.255 179.998 171.468C180.12 171.682 180.307 171.855 180.558 171.988C180.814 172.122 181.147 172.188 181.558 172.188ZM190.982 173.38C190.128 173.38 189.374 173.196 188.718 172.828C188.062 172.455 187.544 171.943 187.166 171.292L188.302 170.556C188.616 171.031 188.992 171.396 189.43 171.652C189.867 171.903 190.366 172.028 190.926 172.028C191.512 172.028 191.979 171.895 192.326 171.628C192.672 171.356 192.846 170.991 192.846 170.532C192.846 170.191 192.76 169.93 192.59 169.748C192.419 169.567 192.174 169.442 191.854 169.372C191.534 169.303 191.152 169.268 190.71 169.268H189.814V168.092H190.702C191.262 168.092 191.718 168.002 192.07 167.82C192.422 167.639 192.598 167.33 192.598 166.892C192.598 166.444 192.432 166.119 192.102 165.916C191.776 165.708 191.387 165.604 190.934 165.604C190.454 165.604 189.995 165.706 189.558 165.908C189.12 166.106 188.744 166.356 188.43 166.66L187.566 165.692C188.014 165.234 188.528 164.882 189.11 164.636C189.696 164.386 190.334 164.26 191.022 164.26C191.576 164.26 192.083 164.359 192.542 164.556C193.006 164.748 193.374 165.034 193.646 165.412C193.923 165.786 194.062 166.242 194.062 166.78C194.062 167.239 193.955 167.647 193.742 168.004C193.528 168.362 193.214 168.674 192.798 168.94L192.742 168.436C193.094 168.522 193.384 168.679 193.614 168.908C193.848 169.132 194.022 169.399 194.134 169.708C194.246 170.018 194.302 170.34 194.302 170.676C194.302 171.242 194.152 171.727 193.854 172.132C193.56 172.532 193.163 172.842 192.662 173.06C192.16 173.274 191.6 173.38 190.982 173.38ZM200.026 173.38C199.215 173.38 198.532 173.18 197.978 172.78C197.423 172.375 197.002 171.828 196.714 171.14C196.431 170.447 196.29 169.671 196.29 168.812C196.29 167.943 196.431 167.164 196.714 166.476C197.002 165.788 197.423 165.247 197.978 164.852C198.538 164.458 199.223 164.26 200.034 164.26C200.834 164.26 201.522 164.46 202.098 164.86C202.679 165.255 203.124 165.796 203.434 166.484C203.743 167.172 203.898 167.948 203.898 168.812C203.898 169.676 203.743 170.452 203.434 171.14C203.124 171.828 202.679 172.375 202.098 172.78C201.522 173.18 200.831 173.38 200.026 173.38ZM196.05 176.98V164.5H197.322V170.86H197.482V176.98H196.05ZM199.85 172.076C200.42 172.076 200.892 171.932 201.266 171.644C201.639 171.356 201.919 170.967 202.106 170.476C202.292 169.98 202.386 169.426 202.386 168.812C202.386 168.204 202.292 167.655 202.106 167.164C201.924 166.674 201.642 166.284 201.258 165.996C200.879 165.708 200.396 165.564 199.81 165.564C199.25 165.564 198.786 165.703 198.418 165.98C198.05 166.252 197.775 166.634 197.594 167.124C197.412 167.61 197.322 168.172 197.322 168.812C197.322 169.442 197.41 170.004 197.586 170.5C197.767 170.991 198.044 171.378 198.418 171.66C198.791 171.938 199.268 172.076 199.85 172.076ZM208.107 173.38C207.462 173.38 206.921 173.263 206.483 173.028C206.051 172.788 205.723 172.474 205.499 172.084C205.281 171.695 205.171 171.268 205.171 170.804C205.171 170.351 205.257 169.959 205.427 169.628C205.603 169.292 205.849 169.015 206.163 168.796C206.478 168.572 206.854 168.396 207.291 168.268C207.702 168.156 208.161 168.06 208.667 167.98C209.179 167.895 209.697 167.818 210.219 167.748C210.742 167.679 211.23 167.612 211.683 167.548L211.171 167.844C211.187 167.076 211.033 166.508 210.707 166.14C210.387 165.772 209.833 165.588 209.043 165.588C208.521 165.588 208.062 165.708 207.667 165.948C207.278 166.183 207.003 166.567 206.843 167.1L205.491 166.692C205.699 165.935 206.102 165.34 206.699 164.908C207.297 164.476 208.083 164.26 209.059 164.26C209.843 164.26 210.515 164.402 211.075 164.684C211.641 164.962 212.046 165.383 212.291 165.948C212.414 166.215 212.491 166.506 212.523 166.82C212.555 167.13 212.571 167.455 212.571 167.796V173.14H211.307V171.068L211.603 171.26C211.278 171.959 210.822 172.487 210.235 172.844C209.654 173.202 208.945 173.38 208.107 173.38ZM208.323 172.188C208.835 172.188 209.278 172.098 209.651 171.916C210.03 171.73 210.334 171.487 210.563 171.188C210.793 170.884 210.942 170.554 211.011 170.196C211.091 169.93 211.134 169.634 211.139 169.308C211.15 168.978 211.155 168.724 211.155 168.548L211.651 168.764C211.187 168.828 210.731 168.89 210.283 168.948C209.835 169.007 209.411 169.071 209.011 169.14C208.611 169.204 208.251 169.282 207.931 169.372C207.697 169.447 207.475 169.543 207.267 169.66C207.065 169.778 206.899 169.93 206.771 170.116C206.649 170.298 206.587 170.524 206.587 170.796C206.587 171.031 206.646 171.255 206.763 171.468C206.886 171.682 207.073 171.855 207.323 171.988C207.579 172.122 207.913 172.188 208.323 172.188ZM218.163 173.388C217.347 173.383 216.651 173.207 216.075 172.86C215.499 172.508 215.051 171.994 214.731 171.316C214.411 170.639 214.233 169.81 214.195 168.828C214.174 168.375 214.179 167.876 214.211 167.332C214.249 166.788 214.307 166.266 214.387 165.764C214.473 165.263 214.579 164.85 214.707 164.524C214.851 164.135 215.054 163.775 215.315 163.444C215.582 163.108 215.881 162.831 216.211 162.612C216.547 162.383 216.923 162.204 217.339 162.076C217.755 161.948 218.19 161.85 218.643 161.78C219.102 161.706 219.561 161.642 220.019 161.588C220.478 161.53 220.915 161.46 221.331 161.38L221.475 162.66C221.182 162.724 220.835 162.78 220.435 162.828C220.035 162.871 219.619 162.922 219.187 162.98C218.761 163.039 218.35 163.122 217.955 163.228C217.566 163.33 217.23 163.471 216.947 163.652C216.531 163.903 216.211 164.279 215.987 164.78C215.769 165.276 215.635 165.834 215.587 166.452C215.918 165.94 216.347 165.564 216.875 165.324C217.403 165.084 217.966 164.964 218.563 164.964C219.337 164.964 220.003 165.146 220.563 165.508C221.123 165.866 221.553 166.359 221.851 166.988C222.155 167.618 222.307 168.335 222.307 169.14C222.307 169.994 222.137 170.74 221.795 171.38C221.454 172.02 220.971 172.516 220.347 172.868C219.729 173.22 219.001 173.394 218.163 173.388ZM218.251 172.036C219.089 172.036 219.723 171.778 220.155 171.26C220.587 170.738 220.803 170.044 220.803 169.18C220.803 168.295 220.579 167.599 220.131 167.092C219.683 166.58 219.054 166.324 218.243 166.324C217.422 166.324 216.793 166.58 216.355 167.092C215.923 167.599 215.707 168.295 215.707 169.18C215.707 170.071 215.926 170.77 216.363 171.276C216.801 171.783 217.43 172.036 218.251 172.036ZM227.753 173.38C226.894 173.38 226.153 173.186 225.529 172.796C224.91 172.407 224.433 171.868 224.097 171.18C223.761 170.492 223.593 169.703 223.593 168.812C223.593 167.906 223.764 167.111 224.105 166.428C224.446 165.746 224.929 165.215 225.553 164.836C226.177 164.452 226.91 164.26 227.753 164.26C228.617 164.26 229.361 164.455 229.985 164.844C230.609 165.228 231.086 165.764 231.417 166.452C231.753 167.135 231.921 167.922 231.921 168.812C231.921 169.714 231.753 170.508 231.417 171.196C231.081 171.879 230.601 172.415 229.977 172.804C229.353 173.188 228.612 173.38 227.753 173.38ZM227.753 172.028C228.649 172.028 229.316 171.73 229.753 171.132C230.19 170.535 230.409 169.762 230.409 168.812C230.409 167.836 230.188 167.06 229.745 166.484C229.302 165.903 228.638 165.612 227.753 165.612C227.15 165.612 226.654 165.748 226.265 166.02C225.876 166.292 225.585 166.668 225.393 167.148C225.201 167.628 225.105 168.183 225.105 168.812C225.105 169.783 225.329 170.562 225.777 171.148C226.225 171.735 226.884 172.028 227.753 172.028ZM235.783 173.14V165.796H232.775V164.5H240.215V165.796H237.207V173.14H235.783ZM241.721 173.14L241.729 164.5H243.169V168.66L246.793 164.5H248.641L244.825 168.82L249.089 173.14H247.097L243.169 168.98V173.14H241.721ZM253.317 173.38C252.469 173.38 251.728 173.194 251.093 172.82C250.464 172.442 249.973 171.916 249.621 171.244C249.269 170.567 249.093 169.778 249.093 168.876C249.093 167.932 249.266 167.116 249.613 166.428C249.96 165.735 250.442 165.202 251.061 164.828C251.685 164.45 252.416 164.26 253.253 164.26C254.122 164.26 254.861 164.46 255.469 164.86C256.082 165.26 256.541 165.831 256.845 166.572C257.154 167.314 257.288 168.196 257.245 169.22H255.805V168.708C255.789 167.647 255.573 166.855 255.157 166.332C254.741 165.804 254.122 165.54 253.301 165.54C252.421 165.54 251.752 165.823 251.293 166.388C250.834 166.954 250.605 167.764 250.605 168.82C250.605 169.839 250.834 170.628 251.293 171.188C251.752 171.748 252.405 172.028 253.253 172.028C253.824 172.028 254.32 171.898 254.741 171.636C255.162 171.375 255.493 170.999 255.733 170.508L257.101 170.98C256.765 171.743 256.258 172.335 255.581 172.756C254.909 173.172 254.154 173.38 253.317 173.38ZM250.125 169.22V168.076H256.509V169.22H250.125Z" fill="white"/>
<path d="M199.78 112.924C203.827 115.223 203.827 121.057 199.78 123.357L170.675 139.894C166.675 142.166 161.711 139.277 161.711 134.677L161.711 101.603C161.711 97.003 166.675 94.1141 170.675 96.3867L199.78 112.924Z" fill="#D9D9D9"/>
</svg>
