<svg width="30" height="22" viewBox="0 0 30 22" fill="none" xmlns="http://www.w3.org/2000/svg">
<path d="M29.1626 3.78125C28.8853 2.26929 27.5639 1.16821 26.0305 0.824463C23.7357 0.34375 19.4889 0 14.894 0C10.3018 0 5.98695 0.34375 3.68951 0.824463C2.15878 1.16821 0.834693 2.19946 0.557368 3.78125C0.277325 5.5 0 7.90625 0 11C0 14.0938 0.277325 16.5 0.62534 18.2188C0.905383 19.7307 2.22675 20.8318 3.75748 21.1755C6.19358 21.6562 10.3698 22 14.9647 22C19.5595 22 23.7357 21.6562 26.1718 21.1755C27.7026 20.8318 29.0239 19.8005 29.304 18.2188C29.5813 16.5 29.9293 14.0239 30 11C29.8586 7.90625 29.5106 5.5 29.1626 3.78125ZM11.1365 15.8125V6.1875L19.6275 11L11.1365 15.8125Z" fill="white"/>
</svg>
