<svg width="17" height="18" viewBox="0 0 17 18" fill="none" xmlns="http://www.w3.org/2000/svg">
<g clip-path="url(#clip0_1175_3915)">
<path d="M2.6491 2.85875C2.77216 2.73218 2.89278 2.5997 3.02745 2.48434C3.03255 2.74563 3.02154 3.00794 3.02684 3.26923C3.06046 4.94377 3.07798 6.62341 3.10997 8.29775C3.13136 9.41506 3.04049 10.1808 3.5193 11.2284C5.49442 15.5491 11.6131 15.5548 13.5196 11.174C14.9762 7.82694 12.7174 4.1387 9.2026 3.61042C8.88231 3.56232 8.68081 3.49608 8.64882 3.87966C8.61724 4.26018 8.6696 4.68309 8.65127 5.0681C8.90595 5.13414 9.17102 5.15635 9.42673 5.21933C12.061 5.86787 13.3456 8.99032 11.7405 11.248C10.1354 13.5056 7.09118 13.5236 5.43146 11.4548C4.2371 9.96618 4.57185 7.66837 4.61708 5.87602C4.65417 4.4055 4.55596 2.93599 4.60547 1.46547C4.67617 1.43408 5.11117 1.18543 5.14581 1.22191C5.17535 1.79463 5.15803 2.36878 5.16537 2.94353C5.17841 3.93632 5.21915 4.92502 5.16638 5.91617C5.05575 7.99386 4.66802 10.6779 6.77476 11.9039C9.75924 13.6408 13.1653 10.2911 11.3739 7.30477C10.8941 6.50479 9.85704 5.78696 8.91817 5.68647C8.67714 5.66079 8.66288 5.84545 8.64902 6.03846C8.62315 6.39983 8.66553 6.79115 8.65167 7.15557C8.66431 7.19307 9.21931 7.33717 9.32078 7.38262C10.3087 7.82449 10.628 9.1766 10.0223 10.0591C9.04735 11.4795 6.7823 10.8907 6.67268 9.13482C6.62012 8.29266 6.66066 7.32331 6.65231 6.46688C6.63438 4.65273 6.68756 2.79373 6.61156 0.98854C6.6081 0.904976 6.61278 0.81917 6.61502 0.73581C6.74583 0.694028 6.87989 0.662029 7.01538 0.637164C11.477 -0.176873 15.7262 2.72443 16.8054 7.06651C17.0585 8.08476 17.0642 9.87365 16.8258 10.8956C16.087 14.0637 13.6579 16.537 10.4946 17.3133C9.36907 17.5895 7.38091 17.5544 6.26173 17.2438C1.54438 15.9345 -1.10351 10.9842 0.441095 6.3024C0.904211 4.89873 1.63342 3.9033 2.6493 2.85875H2.6491Z" fill="#1C274C"/>
</g>
<defs>
<clipPath id="clip0_1175_3915">
<rect width="17" height="17" fill="white" transform="translate(0 0.5)"/>
</clipPath>
</defs>
</svg>
