<svg width="17" height="18" viewBox="0 0 17 18" fill="none" xmlns="http://www.w3.org/2000/svg">
<g clip-path="url(#clip0_1175_4003)">
<path fill-rule="evenodd" clip-rule="evenodd" d="M8.49997 0.977051L15.8666 5.27465V12.7252L8.49997 17.0239L1.1333 12.7252V5.27465L8.49997 0.977051ZM7.36663 5.03325C6.31461 5.03325 5.30567 5.45117 4.56178 6.19506C3.81788 6.93895 3.39997 7.94789 3.39997 8.99992C3.39997 10.0519 3.81788 11.0609 4.56178 11.8048C5.30567 12.5487 6.31461 12.9666 7.36663 12.9666H8.03077C8.61334 12.9667 9.19022 12.8521 9.72848 12.6292C10.2667 12.4064 10.7558 12.0797 11.1678 11.6678L10.3654 10.8654C9.74632 11.4848 8.90654 11.8329 8.03077 11.8333H7.36663C6.61519 11.8333 5.89452 11.5347 5.36316 11.0034C4.83181 10.472 4.5333 9.75136 4.5333 8.99992C4.5333 8.24847 4.83181 7.5278 5.36316 6.99645C5.89452 6.4651 6.61519 6.16658 7.36663 6.16658H8.03077C8.46444 6.16649 8.89388 6.25193 9.29449 6.41801C9.69511 6.58409 10.059 6.82755 10.3654 7.13445L11.1678 6.33205C10.7558 5.92017 10.2667 5.59348 9.72848 5.37063C9.19022 5.14778 8.61334 5.03314 8.03077 5.03325H7.36663ZM7.9333 8.43325V7.29992H9.06663V8.43325H11.3333V7.29992H12.4666V8.43325H13.6V9.56658H12.4666V10.6999H11.3333V9.56658H9.06663V10.6999H7.9333V9.56658H6.79997V8.43325H7.9333Z" fill="#1C274C"/>
</g>
<defs>
<clipPath id="clip0_1175_4003">
<rect width="17" height="17" fill="white" transform="translate(0 0.5)"/>
</clipPath>
</defs>
</svg>
