<svg width="17" height="18" viewBox="0 0 17 18" fill="none" xmlns="http://www.w3.org/2000/svg">
<g clip-path="url(#clip0_1175_4006)">
<path d="M8.61581 18.0001H8.36891L7.90296 17.8973C5.493 16.6417 3.12056 15.3145 0.733524 14.017C0.422141 13.8085 0.146705 13.4711 0.055941 13.1082C0.0235896 12.9789 0.0339241 12.8613 0 12.7383V5.25877C0.020669 4.73501 0.292511 4.282 0.733074 3.97985L7.73985 0.159201C8.23479 -0.0621886 8.75982 -0.0486919 9.25138 0.174874L16.2292 3.97985C16.736 4.33163 16.934 4.75917 16.9632 5.35586C17.0807 7.75174 16.8724 10.2364 16.9632 12.6415C16.9317 13.2727 16.7142 13.7142 16.1613 14.0606L9.23678 17.8301C9.05278 17.9139 8.81846 17.9827 8.61581 18.0001ZM12.3165 6.17001C12.3383 6.13932 12.19 5.97954 12.1603 5.94427C9.63466 2.95301 4.52763 4.27112 3.73569 8.0417C2.76852 12.6462 8.6385 15.6355 11.9705 12.2603C12.0206 12.2096 12.3432 11.8643 12.3165 11.8271L10.5751 10.8497C10.3554 11.0349 10.1568 11.2215 9.90156 11.3643C7.86881 12.5017 5.38764 10.8867 5.67947 8.64252C5.82393 7.53078 6.71944 6.57099 7.84904 6.3311C8.87934 6.11233 9.84584 6.43407 10.5789 7.14526L12.3167 6.17001H12.3165ZM13.3277 7.04185H12.52V7.82466H11.7123V8.60747H12.52V9.39028H11.7123V10.1731H12.52V10.9559H13.3277V10.1731H14.1353V10.9559H14.943V10.1731H15.7507V9.39028H14.943V8.60747H15.7507V7.82466H14.943V7.04185H14.1353V7.82466H13.3277V7.04185Z" fill="#1C274C"/>
<path d="M14.1353 8.60718H13.3276V9.38999H14.1353V8.60718Z" fill="#1C274C"/>
</g>
<defs>
<clipPath id="clip0_1175_4006">
<rect width="17" height="18" fill="white"/>
</clipPath>
</defs>
</svg>
