<svg width="14" height="18" viewBox="0 0 14 18" fill="none" xmlns="http://www.w3.org/2000/svg">
<path d="M13.7493 14.0001C13.7493 15.841 10.7646 17.3334 7.08268 17.3334C3.40078 17.3334 0.416016 15.841 0.416016 14.0001V10.6451C0.834527 11.1589 1.42847 11.5858 2.08913 11.9161C3.39938 12.5712 5.16574 12.9584 7.08268 12.9584C8.99962 12.9584 10.766 12.5712 12.0762 11.9161C12.7369 11.5858 13.3308 11.1589 13.7493 10.6451V14.0001Z" fill="#1C274C"/>
<path d="M7.08268 7.95841C8.99962 7.95841 10.766 7.57125 12.0762 6.91612C12.7369 6.58579 13.3308 6.15891 13.7493 5.64505V9.00008C13.7493 9.41675 12.2613 10.326 11.5172 10.7981C10.4146 11.3494 8.84764 11.7084 7.08268 11.7084C5.31772 11.7084 3.75075 11.3494 2.64815 10.7981C1.66602 10.307 0.416016 9.41675 0.416016 9.00008V5.64505C0.834527 6.15891 1.42847 6.58579 2.08913 6.91612C3.39938 7.57125 5.16574 7.95841 7.08268 7.95841Z" fill="#1C274C"/>
<path d="M11.5172 5.79809C10.4146 6.34939 8.84764 6.70841 7.08268 6.70841C5.31772 6.70841 3.75075 6.34939 2.64815 5.79809C2.22673 5.63299 1.28828 5.11445 0.619443 4.27792C0.480072 4.1036 0.420399 3.8783 0.458534 3.6584C0.476681 3.55376 0.500227 3.45216 0.529169 3.3853C1.10614 1.83803 3.82085 0.666748 7.08268 0.666748C10.3445 0.666748 13.0592 1.83803 13.6362 3.3853C13.6651 3.45216 13.6887 3.55376 13.7068 3.6584C13.745 3.8783 13.6853 4.1036 13.5459 4.27792C12.8771 5.11445 11.9386 5.63299 11.5172 5.79809Z" fill="#1C274C"/>
</svg>
