<svg width="20" height="10" viewBox="0 0 20 10" fill="none" xmlns="http://www.w3.org/2000/svg">
<path d="M6.46823 0C6.8565 0.0769189 7.24349 0.153524 7.61297 0.297943C8.54079 0.660247 9.45556 1.46617 9.86771 2.36753C9.90785 2.45544 10.0053 2.6391 9.95276 2.72356L7.40561 3.40766C7.11258 3.25571 6.95715 2.97692 6.65679 2.80361C5.02665 1.86395 3.06143 3.2689 2.84229 4.96111C2.52441 7.41498 5.34866 8.32262 6.88294 6.55757C6.98582 6.43921 7.10335 6.27689 7.16864 6.13436H4.5441C4.42657 6.13436 4.36637 6.00344 4.36637 5.89984C4.36637 5.69482 4.91389 4.57589 5.05245 4.34984C5.17794 4.14483 5.241 4.08894 5.49741 4.0676L9.63011 4.06446C9.67119 4.05064 9.92505 3.39856 9.98365 3.28554C12.0052 -0.62477 18.3271 -1.33305 19.8531 3.27957L19.9897 4.00575C19.9661 4.37056 20.0219 4.77242 19.9897 5.13253C19.7072 8.30849 15.9972 10.5752 12.9324 9.86854C11.4262 9.5213 10.0945 8.41744 9.63393 6.9475C9.58233 6.93997 9.57054 6.98706 9.54857 7.02003C8.96824 7.89282 8.52582 8.53015 7.61137 9.12038C4.31095 11.2506 -0.253968 9.3436 0.0110341 5.21133C0.17889 2.57851 2.71106 0.21035 5.35471 0H6.46823ZM14.9559 2.51321C13.9466 2.58228 13.0019 3.16717 12.5502 4.05849C11.2392 6.64485 14.1361 8.57379 16.2991 6.77608C18.05 5.3209 17.4044 2.34524 14.9563 2.51289L14.9559 2.51321Z" fill="#1C274C"/>
</svg>
