<svg width="17" height="18" viewBox="0 0 17 18" fill="none" xmlns="http://www.w3.org/2000/svg">
<g clip-path="url(#clip0_1175_4015)">
<path d="M0 0.5H17V17.5H0V0.5ZM15.6081 13.4466C15.4838 12.6688 14.977 12.0186 13.4805 11.4103C12.9604 11.167 12.3792 10.9954 12.2076 10.6023C12.1438 10.3696 12.1327 10.2426 12.1741 10.1039C12.282 9.64441 12.8217 9.50894 13.2478 9.63644C13.5246 9.72197 13.779 9.93234 13.9395 10.2729C14.6726 9.79422 14.6726 9.79422 15.1821 9.476C14.9913 9.18009 14.8973 9.04994 14.7672 8.92562C14.3214 8.42466 13.727 8.17019 12.7612 8.1925L12.2602 8.25625C11.7815 8.37259 11.3252 8.62706 11.0484 8.96759C10.243 9.88081 10.4757 11.4746 11.4522 12.136C12.418 12.8579 13.8316 13.0157 14.0144 13.6968C14.1833 14.5271 13.3976 14.7928 12.6198 14.6955C12.0472 14.568 11.7289 14.2806 11.3773 13.7494L10.0821 14.4937C10.2287 14.8342 10.4003 14.9808 10.6547 15.2794C11.8862 16.522 14.9685 16.4582 15.5215 14.568C15.5407 14.5043 15.6905 14.0671 15.5741 13.4003L15.6081 13.4466ZM9.24428 8.31363H7.65319C7.65319 9.68584 7.64469 11.0501 7.64469 12.4255C7.64469 13.2973 7.68878 14.0995 7.548 14.346C7.31266 14.8331 6.71234 14.772 6.43822 14.6865C6.15878 14.5484 6.01481 14.3571 5.85172 14.0803C5.80444 14.0054 5.7715 13.9422 5.76034 13.9422L4.46834 14.7391C4.68403 15.1848 4.99959 15.5694 5.40653 15.8127C6.01269 16.1751 6.82603 16.2914 7.67816 16.1007C8.23172 15.9402 8.71037 15.6109 8.959 15.1019C9.32131 14.4432 9.24375 13.6357 9.24109 12.7304C9.24959 11.2748 9.24109 9.81972 9.24109 8.35294L9.24428 8.31363Z" fill="#1C274C"/>
</g>
<defs>
<clipPath id="clip0_1175_4015">
<rect y="0.5" width="17" height="17" rx="3" fill="white"/>
</clipPath>
</defs>
</svg>
