<svg width="17" height="18" viewBox="0 0 17 18" fill="none" xmlns="http://www.w3.org/2000/svg">
<g clip-path="url(#clip0_1175_3926)">
<path d="M8.5 0.5C6.24566 0.5 4.08365 1.39553 2.48959 2.98959C0.895533 4.58365 0 6.74566 0 9C0 11.2543 0.895533 13.4163 2.48959 15.0104C4.08365 16.6045 6.24566 17.5 8.5 17.5C10.1797 17.4967 11.8207 16.9958 13.2159 16.0606L6.24405 7.05297V12.3971H5.1V5.6H6.53012L14.117 15.3729C15.0222 14.5759 15.7474 13.5955 16.2444 12.4967C16.7415 11.3979 16.9991 10.206 17 9C17 6.74566 16.1045 4.58365 14.5104 2.98959C12.9163 1.39553 10.7543 0.5 8.5 0.5ZM10.861 5.6H11.9944V12.0781L10.861 10.5898V5.6Z" fill="#1C274C"/>
</g>
<defs>
<clipPath id="clip0_1175_3926">
<rect width="17" height="17" fill="white" transform="translate(0 0.5)"/>
</clipPath>
</defs>
</svg>
