<svg width="16" height="18" viewBox="0 0 16 18" fill="none" xmlns="http://www.w3.org/2000/svg">
<path fill-rule="evenodd" clip-rule="evenodd" d="M16 5.05374L8 0.5L0 5.05374V12.9463L1.23815 13.651L3.76985 12.6521C4.11054 12.5175 4.40229 12.2868 4.60774 11.9895C4.8132 11.6922 4.923 11.3419 4.92308 10.9833V4.79802H6.15385V10.9833C6.15376 11.581 5.97074 12.1651 5.62823 12.6607C5.28573 13.1562 4.79934 13.5408 4.23139 13.765L2.58215 14.4157L8 17.5L16 12.9475V5.05374ZM7.38462 7.19915C7.38462 6.56233 7.64396 5.9516 8.10558 5.5013C8.56721 5.051 9.19331 4.79802 9.84615 4.79802H11.2825C12.528 4.79802 13.5385 5.78249 13.5385 6.99866V7.19915H12.3077V6.99866C12.3077 6.86733 12.2812 6.73728 12.2297 6.61595C12.1781 6.49461 12.1026 6.38437 12.0074 6.2915C11.9122 6.19864 11.7992 6.12497 11.6748 6.07471C11.5504 6.02446 11.4171 5.99859 11.2825 5.99859H9.84615C9.51973 5.99859 9.20668 6.12508 8.97587 6.35022C8.74506 6.57537 8.61539 6.88074 8.61539 7.19915C8.61539 7.51756 8.74506 7.82293 8.97587 8.04808C9.20668 8.27323 9.51973 8.39972 9.84615 8.39972H11.0769C11.7298 8.39972 12.3559 8.65269 12.8175 9.10299C13.2791 9.55329 13.5385 10.164 13.5385 10.8008C13.5385 11.4377 13.2791 12.0484 12.8175 12.4987C12.3559 12.949 11.7298 13.202 11.0769 13.202H9.84615C9.19331 13.202 8.56721 12.949 8.10558 12.4987C7.64396 12.0484 7.38462 11.4377 7.38462 10.8008H8.61539C8.61539 11.1193 8.74506 11.4246 8.97587 11.6498C9.20668 11.8749 9.51973 12.0014 9.84615 12.0014H11.0769C11.4033 12.0014 11.7164 11.8749 11.9472 11.6498C12.178 11.4246 12.3077 11.1193 12.3077 10.8008C12.3077 10.4824 12.178 10.1771 11.9472 9.95192C11.7164 9.72677 11.4033 9.60028 11.0769 9.60028H9.84615C9.19331 9.60028 8.56721 9.34731 8.10558 8.89701C7.64396 8.44671 7.38462 7.83597 7.38462 7.19915Z" fill="#1C274C"/>
</svg>
