<svg width="17" height="18" viewBox="0 0 17 18" fill="none" xmlns="http://www.w3.org/2000/svg">
<path d="M13.0156 0.5H3.98438C1.78387 0.5 0 2.28387 0 4.48438V13.5156C0 15.7161 1.78387 17.5 3.98438 17.5H13.0156C15.2161 17.5 17 15.7161 17 13.5156V4.48438C17 2.28387 15.2161 0.5 13.0156 0.5Z" fill="#1C274C"/>
<path d="M3.2644 7.15696H5.15087C5.70456 7.16161 6.10579 7.32125 6.35455 7.63562C6.6033 7.94998 6.68538 8.37937 6.60091 8.92377C6.56811 9.17252 6.49533 9.4165 6.3827 9.65583C6.27473 9.89516 6.12465 10.111 5.9322 10.3034C5.69752 10.5474 5.44651 10.7023 5.17902 10.768C4.91154 10.8337 4.63463 10.8665 4.34841 10.8665H3.50373L3.23624 12.204H2.25781L3.2644 7.15696ZM4.08797 7.95941L3.66563 10.0711C3.69378 10.0758 3.72194 10.0782 3.75009 10.0782H3.84864C4.29914 10.0828 4.6746 10.0383 4.97489 9.94443C5.27518 9.84588 5.47705 9.50336 5.58025 8.91673C5.66472 8.42399 5.58025 8.14004 5.32684 8.065C5.07809 7.98996 4.76611 7.95477 4.39065 7.95941C4.33434 7.96406 4.28041 7.96645 4.22875 7.96645H4.08093L4.08797 7.95941ZM7.71548 5.8125H8.68687L8.41234 7.15696H9.28519C9.76384 7.16639 10.1204 7.26494 10.3551 7.4526C10.5945 7.64027 10.6648 7.997 10.5663 8.52254L10.0947 10.8665H9.10921L9.55971 8.62813C9.60659 8.39345 9.59252 8.2269 9.51748 8.12835C9.44244 8.0298 9.28054 7.98053 9.03178 7.98053L8.25044 7.97349L7.67324 10.8665H6.70185L7.71548 5.8125ZM11.6094 7.15696H13.4959C14.0496 7.16161 14.4508 7.32125 14.6996 7.63562C14.9483 7.94998 15.0304 8.37937 14.9459 8.92377C14.9131 9.17252 14.8403 9.4165 14.7277 9.65583C14.6197 9.89516 14.4697 10.111 14.2772 10.3034C14.0425 10.5474 13.7915 10.7023 13.524 10.768C13.2565 10.8337 12.9796 10.8665 12.6934 10.8665H11.8487L11.5812 12.204H10.6028L11.6094 7.15696ZM12.433 7.95941L12.0106 10.0711C12.0388 10.0758 12.0669 10.0782 12.0951 10.0782H12.1936C12.6441 10.0828 13.0196 10.0383 13.3199 9.94443C13.6202 9.84588 13.8221 9.50336 13.9253 8.91673C14.0097 8.42399 13.9253 8.14004 13.6719 8.065C13.4231 7.98996 13.1111 7.95477 12.7357 7.95941C12.6793 7.96406 12.6254 7.96645 12.5738 7.96645H12.4259L12.433 7.95941Z" fill="white"/>
</svg>
