<svg width="17" height="18" viewBox="0 0 17 18" fill="none" xmlns="http://www.w3.org/2000/svg">
<g clip-path="url(#clip0_1175_4204)">
<path d="M6.14787 8.70002H10.3632C10.3632 8.70002 12.7318 8.738 12.7318 6.41122V2.56311C12.7318 2.56311 13.0912 0.234375 8.43765 0.234375C3.98276 0.234375 4.26034 2.16573 4.26034 2.16573L4.26618 4.16722H8.51556V4.76815H2.57832C2.57832 4.76815 -0.272461 4.4448 -0.272461 8.93864C-0.272461 13.4325 2.216 13.2728 2.216 13.2728H3.70032V11.1875C3.70032 11.1875 3.61948 8.70002 6.14787 8.70002ZM6.09333 3.1095C5.89056 3.1095 5.69609 3.02895 5.55271 2.88557C5.40932 2.74218 5.32877 2.54772 5.32877 2.34494C5.32877 2.14217 5.40932 1.9477 5.55271 1.80432C5.69609 1.66094 5.89056 1.58039 6.09333 1.58039C6.2961 1.58039 6.49057 1.66094 6.63395 1.80432C6.77734 1.9477 6.85789 2.14217 6.85789 2.34494C6.85789 2.54772 6.77734 2.74218 6.63395 2.88557C6.49057 3.02895 6.2961 3.1095 6.09333 3.1095Z" fill="#1C274C"/>
<path d="M14.784 4.64815H13.2997V6.7334C13.2997 6.7334 13.3805 9.22089 10.8521 9.22089H6.63682C6.63682 9.22089 4.26815 9.18193 4.26815 11.5097V15.3578C4.26815 15.3578 3.90876 17.6865 8.56233 17.6865C13.0162 17.6865 12.7387 15.7552 12.7387 15.7552L12.7328 13.7547H8.48344V13.1537H14.4217C14.4217 13.1537 17.2724 13.4771 17.2724 8.98324C17.2724 4.4894 14.784 4.64815 14.784 4.64815ZM10.9067 14.8124C11.1094 14.8124 11.3039 14.8929 11.4473 15.0363C11.5907 15.1797 11.6712 15.3742 11.6712 15.5769C11.6712 15.7797 11.5907 15.9742 11.4473 16.1176C11.3039 16.2609 11.1094 16.3415 10.9067 16.3415C10.7039 16.3415 10.5094 16.2609 10.366 16.1176C10.2226 15.9742 10.1421 15.7797 10.1421 15.5769C10.1421 15.3742 10.2226 15.1797 10.366 15.0363C10.5094 14.8929 10.7039 14.8124 10.9067 14.8124Z" fill="#1C274C"/>
</g>
<defs>
<clipPath id="clip0_1175_4204">
<rect width="17" height="17" fill="white" transform="translate(0 0.5)"/>
</clipPath>
</defs>
</svg>
