<svg width="20" height="20" viewBox="0 0 20 20" fill="none" xmlns="http://www.w3.org/2000/svg">
<path d="M14.1684 5.83153C13.2191 4.88224 12.2214 4.0571 11.2186 3.37174C12.3664 2.78752 13.4533 2.43633 14.3963 2.32753C15.5855 2.19032 16.4642 2.44301 17.0106 2.98935C17.5569 3.5357 17.8096 4.41439 17.6724 5.60362C17.5636 6.54659 17.2124 7.63352 16.6282 8.78138C15.9428 7.7785 15.1177 6.78083 14.1684 5.83153Z" fill="#1C274C"/>
<path fill-rule="evenodd" clip-rule="evenodd" d="M13.2845 6.71541C14.3456 7.77656 15.2359 8.89521 15.9333 9.99948C15.2359 11.1037 14.3457 12.2222 13.2846 13.2833C12.2234 14.3445 11.1048 15.2347 10.0005 15.9322C8.89625 15.2347 7.77763 14.3445 6.7165 13.2834C5.65539 12.2223 4.7652 11.1037 4.06778 9.99947C4.76522 8.89518 5.65548 7.77648 6.71666 6.71529C7.77774 5.65422 8.8963 4.76404 10.0005 4.06663C11.1047 4.76406 12.2233 5.65427 13.2845 6.71541ZM10.0003 12.0833C11.1509 12.0833 12.0837 11.1505 12.0837 9.99992C12.0837 8.84933 11.1509 7.91658 10.0003 7.91658C8.84973 7.91658 7.91699 8.84933 7.91699 9.99992C7.91699 11.1505 8.84973 12.0833 10.0003 12.0833Z" fill="#1C274C"/>
<path d="M11.2186 16.627C12.2215 15.9417 13.2192 15.1165 14.1685 14.1672C15.1177 13.218 15.9428 12.2204 16.6281 11.2176C17.2123 12.3654 17.5635 13.4523 17.6722 14.3952C17.8094 15.5844 17.5567 16.463 17.0104 17.0093C16.4641 17.5557 15.5854 17.8084 14.3962 17.6712C13.4533 17.5624 12.3664 17.2112 11.2186 16.627Z" fill="#1C274C"/>
<path d="M5.83262 14.1673C6.78188 15.1165 7.77951 15.9417 8.78234 16.627C7.63457 17.2112 6.54774 17.5623 5.60485 17.6711C4.41569 17.8082 3.53706 17.5555 2.99074 17.0092C2.44442 16.4629 2.19172 15.5843 2.3289 14.3951C2.43766 13.4522 2.78879 12.3654 3.37292 11.2176C4.05826 12.2204 4.88337 13.218 5.83262 14.1673Z" fill="#1C274C"/>
<path d="M3.3729 8.78136C4.05827 7.77845 4.88345 6.78074 5.83278 5.83141C6.782 4.88219 7.77958 4.05709 8.78237 3.37176C7.63456 2.78758 6.54768 2.43642 5.60475 2.32764C4.41556 2.19044 3.53691 2.44314 2.99057 2.98947C2.44423 3.53581 2.19154 4.41448 2.32875 5.60369C2.43754 6.54664 2.78871 7.63353 3.3729 8.78136Z" fill="#1C274C"/>
</svg>
