<svg width="17" height="18" viewBox="0 0 17 18" fill="none" xmlns="http://www.w3.org/2000/svg">
<g clip-path="url(#clip0_1175_4000)">
<path d="M8.5002 0.606201C8.94857 0.606201 9.31301 0.969576 9.31301 1.41901V2.39226C9.62751 2.42945 9.9367 2.48895 10.2374 2.56864L10.5381 1.84295C10.5789 1.74437 10.6387 1.6548 10.7141 1.57934C10.7896 1.50389 10.8791 1.44403 10.9777 1.40318C11.0763 1.36234 11.1819 1.3413 11.2886 1.34129C11.3953 1.34127 11.5009 1.36226 11.5995 1.40308C11.6981 1.44389 11.7877 1.50372 11.8631 1.57915C11.9386 1.65458 11.9984 1.74413 12.0393 1.84269C12.0801 1.94126 12.1012 2.0469 12.1012 2.15359C12.1012 2.26029 12.0802 2.36594 12.0394 2.46451L11.7461 3.17108C12.0511 3.33789 12.3411 3.52701 12.6142 3.73739L13.2868 3.06483C13.441 2.92247 13.6444 2.84533 13.8543 2.84955C14.0642 2.85377 14.2643 2.93902 14.4127 3.08745C14.5611 3.23589 14.6464 3.43599 14.6506 3.64587C14.6548 3.85574 14.5777 4.05911 14.4353 4.21339L13.7766 4.87214C14.0316 5.18876 14.2579 5.52876 14.4534 5.88789L15.1238 5.61058C15.223 5.56596 15.3302 5.54173 15.439 5.5393C15.5477 5.53687 15.6559 5.5563 15.757 5.59644C15.8581 5.63657 15.9502 5.6966 16.0276 5.77296C16.1051 5.84933 16.1665 5.94047 16.2081 6.04099C16.2497 6.1415 16.2708 6.24935 16.2699 6.35814C16.2691 6.46693 16.2464 6.57445 16.2033 6.67431C16.1601 6.77418 16.0973 6.86437 16.0187 6.93953C15.94 7.0147 15.8471 7.07331 15.7454 7.11189L15.0505 7.39876C15.127 7.69308 15.1844 7.99376 15.2205 8.30083H16.0811C16.2915 8.30843 16.4907 8.39735 16.6368 8.54885C16.7829 8.70035 16.8646 8.90262 16.8646 9.11311C16.8646 9.32359 16.7829 9.52587 16.6368 9.67737C16.4907 9.82887 16.2915 9.91778 16.0811 9.92539H15.2205C15.1764 10.2947 15.1018 10.6596 14.9974 11.0166L15.7029 11.3088C15.8046 11.3473 15.8975 11.406 15.9762 11.4811C16.0548 11.5563 16.1176 11.6465 16.1608 11.7463C16.2039 11.8462 16.2266 11.9537 16.2274 12.0625C16.2283 12.1713 16.2072 12.2791 16.1656 12.3797C16.124 12.4802 16.0626 12.5713 15.9851 12.6477C15.9077 12.724 15.8156 12.7841 15.7145 12.8242C15.6134 12.8644 15.5052 12.8838 15.3965 12.8814C15.2877 12.8789 15.1805 12.8547 15.0813 12.8101L14.3673 12.5147C14.2292 12.7697 14.0719 13.0151 13.8998 13.251L14.4353 13.7865C14.5777 13.9408 14.6548 14.1442 14.6506 14.354C14.6464 14.5639 14.5611 14.764 14.4127 14.9125C14.2643 15.0609 14.0642 15.1461 13.8543 15.1504C13.6444 15.1546 13.441 15.0774 13.2868 14.9351L12.7927 14.441C12.4739 14.7098 12.1265 14.951 11.7536 15.1603L12.0394 15.851C12.0828 15.95 12.106 16.0566 12.1077 16.1647C12.1093 16.2728 12.0894 16.3802 12.0491 16.4805C12.0088 16.5808 11.9488 16.672 11.8728 16.7489C11.7968 16.8257 11.7062 16.8867 11.6063 16.9281C11.5065 16.9695 11.3993 16.9906 11.2912 16.9901C11.1831 16.9896 11.0762 16.9675 10.9767 16.9252C10.8773 16.8829 10.7872 16.8211 10.7119 16.7436C10.6366 16.666 10.5775 16.5742 10.5381 16.4736L10.2512 15.783C9.94343 15.8693 9.62991 15.9335 9.31301 15.9753V16.5809C9.31301 16.7965 9.22737 17.0032 9.07494 17.1556C8.92251 17.3081 8.71577 17.3937 8.5002 17.3937C8.28462 17.3937 8.07788 17.3081 7.92545 17.1556C7.77302 17.0032 7.68738 16.7965 7.68738 16.5809V15.9912C7.29642 15.9476 6.90998 15.8701 6.53244 15.7596L6.23707 16.4736C6.19849 16.5753 6.13988 16.6682 6.06471 16.7469C5.98955 16.8255 5.89936 16.8883 5.79949 16.9315C5.69963 16.9746 5.59211 16.9973 5.48332 16.9981C5.37453 16.9989 5.26669 16.9779 5.16617 16.9363C5.06565 16.8947 4.97451 16.8333 4.89815 16.7558C4.82178 16.6783 4.76176 16.5863 4.72162 16.4852C4.68148 16.3841 4.66205 16.2759 4.66448 16.1672C4.66691 16.0584 4.69115 15.9512 4.73576 15.852L5.03857 15.121C4.72505 14.9394 4.4266 14.733 4.14607 14.5037L3.71363 14.9351C3.55936 15.0774 3.35599 15.1546 3.14611 15.1504C2.93624 15.1461 2.73613 15.0609 2.5877 14.9125C2.43926 14.764 2.35401 14.5639 2.34979 14.354C2.34558 14.1442 2.42272 13.9408 2.56507 13.7865L3.01982 13.3318C2.84095 13.0938 2.67803 12.8443 2.53213 12.5848L1.73738 12.9142C1.53977 12.9892 1.32073 12.9842 1.12672 12.9004C0.932709 12.8165 0.778979 12.6604 0.698133 12.4651C0.617286 12.2699 0.615681 12.0508 0.693657 11.8543C0.771633 11.6579 0.923057 11.4996 1.11582 11.4129L1.91057 11.0835C1.80427 10.7046 1.73139 10.3171 1.69276 9.92539H0.919258C0.703687 9.92539 0.496944 9.83975 0.344513 9.68732C0.192081 9.53489 0.106445 9.32815 0.106445 9.11258C0.106445 8.897 0.192081 8.69026 0.344513 8.53783C0.496944 8.3854 0.703687 8.29976 0.919258 8.29976H1.72888C1.77563 7.98314 1.84363 7.6697 1.93288 7.36476L1.07226 7.00776C0.879495 6.9211 0.72807 6.76275 0.650094 6.56631C0.572118 6.36987 0.573724 6.15079 0.65457 5.95551C0.735417 5.76024 0.889146 5.60413 1.08316 5.5203C1.27717 5.43646 1.49621 5.4315 1.69382 5.50645L2.55976 5.86451C2.75207 5.51389 2.97413 5.18133 3.22382 4.87214L2.56507 4.21339C2.42272 4.05911 2.34558 3.85574 2.34979 3.64587C2.35401 3.43599 2.43926 3.23589 2.5877 3.08745C2.73613 2.93902 2.93624 2.85377 3.14611 2.84955C3.35599 2.84533 3.55936 2.92247 3.71363 3.06483L4.3862 3.73739C4.60401 3.56951 4.83245 3.41545 5.07151 3.2752L4.73576 2.46451C4.6608 2.2669 4.66577 2.04786 4.7496 1.85385C4.83344 1.65984 4.98954 1.50611 5.18482 1.42526C5.38009 1.34442 5.59918 1.34281 5.79562 1.42079C5.99206 1.49876 6.1504 1.65019 6.23707 1.84295L6.56113 2.62495C6.9292 2.51507 7.30599 2.43686 7.68738 2.3912V1.41901C7.68738 0.969576 8.05182 0.606201 8.5002 0.606201ZM7.68738 4.16983C6.92119 4.28278 6.19026 4.56685 5.54887 5.00094C4.90748 5.43503 4.37209 6.008 3.98245 6.67733L4.63057 6.88876C4.73609 6.91826 4.83457 6.96878 4.92007 7.0373C5.00557 7.10582 5.07634 7.19092 5.12811 7.28748C5.17989 7.38404 5.21161 7.49008 5.22136 7.59921C5.23112 7.70835 5.21871 7.81832 5.18488 7.92254C5.15105 8.02675 5.09649 8.12305 5.0245 8.20565C4.95251 8.28825 4.86455 8.35543 4.76593 8.40317C4.66731 8.45092 4.56006 8.47822 4.45061 8.48346C4.34117 8.48869 4.2318 8.47175 4.12907 8.43364L3.43526 8.20839C3.29014 9.01206 3.33921 9.83877 3.57836 10.6196C3.81752 11.4005 4.23984 12.1129 4.81013 12.6975L5.29676 12.0281C5.42328 11.8538 5.61386 11.7369 5.82657 11.7031C6.03928 11.6694 6.25669 11.7215 6.43098 11.848C6.60527 11.9745 6.72215 12.1651 6.75593 12.3778C6.7897 12.5905 6.7376 12.8079 6.61107 12.9822L6.1117 13.6707C6.84837 14.0574 7.6682 14.2587 8.5002 14.2572C9.36295 14.2572 10.1758 14.0447 10.8898 13.6707L10.5158 13.1565C10.3974 12.9818 10.3516 12.768 10.388 12.5603C10.4244 12.3525 10.5401 12.167 10.7108 12.043C10.8814 11.9189 11.0936 11.8661 11.3024 11.8957C11.5113 11.9252 11.7005 12.0348 11.8301 12.2013L12.1913 12.6975C12.5621 12.3149 12.8734 11.8761 13.1125 11.3938C13.5627 10.4063 13.6891 9.30179 13.4738 8.23814L12.8713 8.43364C12.7699 8.46657 12.663 8.47919 12.5566 8.4708C12.4503 8.4624 12.3467 8.43315 12.2517 8.3847C12.1567 8.33626 12.0721 8.26958 12.0029 8.18846C11.9336 8.10735 11.8811 8.01339 11.8481 7.91195C11.8152 7.81051 11.8026 7.70358 11.811 7.59727C11.8194 7.49095 11.8486 7.38732 11.8971 7.29231C11.9455 7.1973 12.0122 7.11276 12.0933 7.04352C12.1744 6.97428 12.2684 6.92169 12.3698 6.88876L12.9011 6.71558C12.5267 6.056 12.0107 5.48766 11.3903 5.05149C10.7698 4.61532 10.0604 4.32219 9.31301 4.1932V4.66814C9.31301 4.88371 9.22737 5.09045 9.07494 5.24288C8.92251 5.39532 8.71577 5.48095 8.5002 5.48095C8.28462 5.48095 8.07788 5.39532 7.92545 5.24288C7.77302 5.09045 7.68738 4.88371 7.68738 4.66814V4.16983Z" fill="#1C274C"/>
</g>
<defs>
<clipPath id="clip0_1175_4000">
<rect width="17" height="17" fill="white" transform="translate(0 0.5)"/>
</clipPath>
</defs>
</svg>
