<svg width="16" height="18" viewBox="0 0 16 18" fill="none" xmlns="http://www.w3.org/2000/svg">
<g clip-path="url(#clip0_1175_4081)">
<path d="M3.45032 0.676121C5.29953 0.465674 11.8108 0.376436 13.4476 0.796773C14.6709 1.11091 15.7044 2.27156 15.9045 3.60096C15.6817 7.0971 16.1999 11.0005 15.909 14.4471C15.7816 15.957 14.5315 17.2519 13.1209 17.4028C9.90548 17.1846 6.34848 17.6986 3.17452 17.4087C1.49178 17.2549 0.310542 15.806 0.162073 14.0616C-0.0482371 11.5949 -0.063893 6.44129 0.174337 3.99489C0.364816 2.04082 1.66816 0.879061 3.45032 0.676121ZM13.4197 14.5047C13.9773 13.9387 13.5121 12.6596 13.2381 11.9866C13.1081 11.6671 12.7491 11.316 12.7081 11.0283C12.646 10.5943 12.8723 9.64858 12.8305 9.01696C12.699 7.0237 11.4807 5.12718 10.1051 3.85172L9.0371 3.09806C10.1194 4.87226 10.7462 6.9934 10.1022 9.08396C8.0487 7.74956 6.20914 6.0671 4.48021 4.29485C4.32157 4.46916 4.63912 4.76273 4.73227 4.90895C5.46601 6.06432 6.39675 7.05929 7.14431 8.20076L3.0023 4.92452C2.91019 5.03378 3.27576 5.48886 3.36082 5.61285C4.81603 7.739 6.59114 9.62857 8.4461 11.3516C6.92774 12.0808 5.3726 12.2015 3.79918 11.5748L1.69921 10.472C3.20113 13.0124 6.45259 15.017 9.3043 14.3465C10.6807 14.0229 12.52 12.2507 13.42 14.5041L13.4197 14.5047Z" fill="#1C274C"/>
</g>
<defs>
<clipPath id="clip0_1175_4081">
<rect width="16" height="17" fill="white" transform="translate(0 0.5)"/>
</clipPath>
</defs>
</svg>
