<svg width="16" height="16" viewBox="0 0 16 16" fill="none" xmlns="http://www.w3.org/2000/svg">
<path d="M14.4356 0H1.56444C1.14953 0 0.751605 0.164825 0.458215 0.458215C0.164825 0.751605 0 1.14953 0 1.56444V14.4356C0 14.8505 0.164825 15.2484 0.458215 15.5418C0.751605 15.8352 1.14953 16 1.56444 16H14.4356C14.641 16 14.8444 15.9595 15.0342 15.8809C15.224 15.8023 15.3965 15.6871 15.5418 15.5418C15.6871 15.3965 15.8023 15.224 15.8809 15.0342C15.9595 14.8444 16 14.641 16 14.4356V1.56444C16 1.359 15.9595 1.15556 15.8809 0.965758C15.8023 0.77595 15.6871 0.603487 15.5418 0.458215C15.3965 0.312943 15.224 0.197707 15.0342 0.119086C14.8444 0.0404655 14.641 0 14.4356 0ZM9.28 8.88889H7.28V14.6133H5.68889V8.88889H3.68889V7.59111H9.28V8.88889ZM14.4356 13.5822C14.3069 13.8558 14.0995 14.0849 13.84 14.24C13.567 14.4081 13.2658 14.5255 12.9511 14.5867C12.6002 14.6591 12.2427 14.6949 11.8844 14.6933C11.5178 14.693 11.152 14.6603 10.7911 14.5956C10.4844 14.5327 10.1861 14.4343 9.90222 14.3022V12.7822L9.84889 12.7289H9.90222V12.7911C10.1696 12.9997 10.4701 13.162 10.7911 13.2711C11.1117 13.3932 11.4525 13.4535 11.7956 13.4489C11.9748 13.452 12.1538 13.4341 12.3289 13.3956C12.4604 13.3648 12.5863 13.3138 12.7022 13.2444C12.7929 13.1891 12.8691 13.1129 12.9244 13.0222C12.9792 12.9189 13.0032 12.8021 12.9938 12.6855C12.9843 12.569 12.9418 12.4576 12.8711 12.3644C12.7875 12.2473 12.6819 12.1476 12.56 12.0711C12.412 11.9671 12.2542 11.8778 12.0889 11.8044L11.4933 11.5556C11.0219 11.3614 10.6042 11.0565 10.2756 10.6667C10.0005 10.3351 9.85524 9.91504 9.86667 9.48444C9.85631 9.15732 9.92974 8.83298 10.08 8.54222C10.2234 8.28878 10.4244 8.0726 10.6667 7.91111C10.9366 7.73149 11.2383 7.6048 11.5556 7.53778C11.9024 7.45795 12.2574 7.41917 12.6133 7.42222C12.9374 7.4177 13.2614 7.4385 13.5822 7.48444C13.8492 7.52618 14.1112 7.59467 14.3644 7.68889V9.15556C14.2474 9.07215 14.1224 9.00069 13.9911 8.94222C13.8498 8.88139 13.7042 8.83088 13.5556 8.79111C13.4131 8.74941 13.2674 8.71968 13.12 8.70222C12.984 8.6894 12.8471 8.6894 12.7111 8.70222C12.5436 8.69945 12.3764 8.71736 12.2133 8.75556C12.0795 8.78361 11.9507 8.83155 11.8311 8.89778C11.7378 8.95278 11.6586 9.02889 11.6 9.12C11.5468 9.20853 11.5191 9.31005 11.52 9.41333C11.5178 9.52359 11.5488 9.63197 11.6089 9.72444C11.6819 9.82541 11.7722 9.91267 11.8756 9.98222C12.0009 10.082 12.1383 10.1656 12.2844 10.2311L12.8444 10.48C13.1019 10.5864 13.3515 10.7112 13.5911 10.8533C13.8018 10.9687 13.9937 11.1155 14.16 11.2889C14.323 11.4468 14.4502 11.6377 14.5333 11.8489C14.6186 12.0916 14.6607 12.3473 14.6578 12.6044C14.6514 12.9364 14.5757 13.2634 14.4356 13.5644V13.5822Z" fill="#1C274C"/>
</svg>
