<svg width="17" height="18" viewBox="0 0 17 18" fill="none" xmlns="http://www.w3.org/2000/svg">
<g clip-path="url(#clip0_1175_3912)">
<path d="M8.56799 0.500013C5.22459 0.494216 2.0777 2.46882 0.633481 5.59439L4.69435 5.60401V6.04635C3.44391 5.89648 3.55402 6.54322 3.73103 7.22967L6.3968 13.884L8.35616 9.30939L7.45668 7.16556C7.12996 6.59135 7.12306 5.95431 5.78641 6.0143L5.80518 5.60668L11.761 5.62111V6.07788C11.0635 6.11863 10.2239 5.90322 10.669 7.32584L13.0778 13.6281L14.3946 9.94887C14.8258 8.40656 14.42 6.9244 13.9076 5.47098C13.6226 4.49595 13.7555 3.68166 15.0329 3.35865C13.0831 1.37636 10.7825 0.503855 8.56806 0.500013H8.56799ZM16.6683 6.31826L12.8069 16.343C13.8733 15.4231 14.9666 15.0883 16.3046 12.543C17.1948 10.426 17.1031 8.46478 16.6683 6.31825V6.31826ZM0.224764 6.48066C-0.15212 9.44011 -0.117643 10.3069 0.815309 12.7236C2.03142 15.0382 2.97448 15.5259 4.31297 16.4338L0.224764 6.48066ZM8.71872 10.2357L5.85719 17.1123C7.8658 17.6833 9.66304 17.6118 11.3083 16.9766L8.71872 10.2357Z" fill="#1C274C"/>
</g>
<defs>
<clipPath id="clip0_1175_3912">
<rect width="17" height="17" fill="white" transform="translate(0 0.5)"/>
</clipPath>
</defs>
</svg>
