<svg width="177" height="186" viewBox="0 0 177 186" fill="none" xmlns="http://www.w3.org/2000/svg">
<g opacity="0.5">
<g opacity="0.8">
<path d="M93.5109 124.186C93.2181 123.893 92.7432 123.893 92.4503 124.186C92.1574 124.479 92.1574 124.954 92.4503 125.247L93.5109 124.186ZM129.138 124.716L129.668 125.247L129.138 124.716ZM38.7445 34.3229L39.2748 34.8533L38.7445 34.3229ZM38.2142 71.0106C38.5071 71.3035 38.982 71.3035 39.2748 71.0106C39.5677 70.7178 39.5677 70.2429 39.2748 69.95L38.2142 71.0106ZM83.9413 25.2836L84.4716 25.8139C84.6123 25.6732 84.6913 25.4825 84.6913 25.2836C84.6913 25.0847 84.6123 24.8939 84.4716 24.7532L83.9413 25.2836ZM47.7839 25.2836L47.2535 24.7532V24.7532L47.7839 25.2836ZM138.177 79.5197L138.708 78.9893C138.567 78.8487 138.376 78.7697 138.177 78.7697C137.978 78.7697 137.788 78.8487 137.647 78.9893L138.177 79.5197ZM138.177 115.677L137.647 115.147L138.177 115.677ZM68.3454 39.8188C68.0525 40.1117 68.0525 40.5866 68.3454 40.8795C68.6383 41.1724 69.1131 41.1724 69.406 40.8795L68.3454 39.8188ZM122.581 94.0549C122.289 94.3478 122.289 94.8227 122.581 95.1156C122.874 95.4085 123.349 95.4085 123.642 95.1156L122.581 94.0549ZM47.7839 25.2836L47.2535 24.7532L38.2142 33.7926L38.7445 34.3229L39.2748 34.8533L48.3142 25.8139L47.7839 25.2836ZM129.138 124.716L129.668 125.247L138.708 116.207L138.177 115.677L137.647 115.147L128.608 124.186L129.138 124.716ZM92.9806 124.716L92.4503 125.247C96.6965 129.493 99.9334 132.732 102.775 134.9C105.634 137.082 108.182 138.25 111.059 138.25V137.5V136.75C108.642 136.75 106.411 135.788 103.685 133.708C100.942 131.615 97.7871 128.462 93.5109 124.186L92.9806 124.716ZM129.138 124.716L128.608 124.186C124.332 128.462 121.177 131.615 118.434 133.708C115.708 135.788 113.477 136.75 111.059 136.75V137.5V138.25C113.937 138.25 116.484 137.082 119.343 134.9C122.185 132.732 125.422 129.493 129.668 125.247L129.138 124.716ZM38.7445 34.3229L38.2142 33.7926C33.968 38.0388 30.7289 41.2757 28.5606 44.1176C26.3791 46.9768 25.2109 49.5241 25.2109 52.4016H25.9609H26.7109C26.7109 49.984 27.6734 47.7532 29.7531 45.0274C31.846 42.2844 34.9987 39.1294 39.2748 34.8533L38.7445 34.3229ZM38.7445 70.4803L39.2748 69.95C34.9987 65.6738 31.846 62.5189 29.7531 59.7758C27.6734 57.05 26.7109 54.8193 26.7109 52.4016H25.9609H25.2109C25.2109 55.2791 26.3791 57.8265 28.5606 60.6857C30.7289 63.5276 33.968 66.7645 38.2142 71.0106L38.7445 70.4803ZM83.9413 25.2836L84.4716 24.7532C80.2254 20.507 76.9885 17.2679 74.1466 15.0996C71.2874 12.9181 68.7401 11.75 65.8626 11.75V12.5V13.25C68.2802 13.25 70.511 14.2125 73.2368 16.2922C75.9798 18.3851 79.1348 21.5377 83.4109 25.8139L83.9413 25.2836ZM47.7839 25.2836L48.3142 25.8139C52.5904 21.5377 55.7453 18.3851 58.4884 16.2922C61.2141 14.2125 63.4449 13.25 65.8626 13.25V12.5V11.75C62.9851 11.75 60.4377 12.9181 57.5785 15.0996C54.7366 17.2679 51.4997 20.507 47.2535 24.7532L47.7839 25.2836ZM138.177 79.5197L137.647 80.05C141.923 84.3262 145.076 87.4811 147.169 90.2242C149.248 92.9499 150.211 95.1807 150.211 97.5984H150.961L151.711 97.5984C151.711 94.7209 150.543 92.1735 148.361 89.3143C146.193 86.4724 142.954 83.2355 138.708 78.9893L138.177 79.5197ZM138.177 115.677L138.708 116.207C142.954 111.961 146.193 108.724 148.361 105.882C150.543 103.023 151.711 100.476 151.711 97.5984L150.961 97.5984H150.211C150.211 100.016 149.248 102.247 147.169 104.973C145.076 107.716 141.923 110.871 137.647 115.147L138.177 115.677ZM83.9413 25.2836L83.4109 24.7532L68.3454 39.8188L68.8757 40.3491L69.406 40.8795L84.4716 25.8139L83.9413 25.2836ZM138.177 79.5197L137.647 78.9893L122.581 94.0549L123.112 94.5852L123.642 95.1156L138.708 80.05L138.177 79.5197Z" fill="#101010"/>
<path d="M103.211 25.4916L109.004 19.6986C118.602 10.1005 134.164 10.1005 143.762 19.6986C153.36 29.2968 153.36 44.8584 143.762 54.4566L137.969 60.2496M103.211 25.4916C103.211 25.4916 103.935 37.8017 114.797 48.6636C125.659 59.5255 137.969 60.2496 137.969 60.2496M103.211 25.4916L49.9536 78.7494C46.3463 82.3566 44.5427 84.1603 42.9915 86.149C41.1618 88.4949 39.593 91.0332 38.3131 93.7189C37.228 95.9957 36.4214 98.4155 34.8082 103.255L29.6432 118.75L27.9722 123.763M137.969 60.2496L84.7116 113.507C81.1043 117.115 79.3007 118.918 77.312 120.469C74.966 122.299 72.4278 123.868 69.742 125.148C67.4653 126.233 65.0455 127.04 60.2058 128.653L44.7109 133.818L39.6979 135.489M39.6979 135.489L34.6849 137.16C32.3033 137.954 29.6775 137.334 27.9024 135.559C26.1272 133.783 25.5074 131.158 26.3012 128.776L27.9722 123.763M39.6979 135.489L27.9722 123.763" stroke="#101010" stroke-width="1.5"/>
</g>
<path opacity="0.8" d="M1.94031 180V168.48H10.7643V180H9.58831V169.608H3.11631V180H1.94031ZM16.6108 180.24C15.7521 180.24 15.0188 180.045 14.4108 179.656C13.8028 179.267 13.3361 178.728 13.0108 178.04C12.6855 177.352 12.5228 176.563 12.5228 175.672C12.5228 174.765 12.6881 173.971 13.0188 173.288C13.3495 172.605 13.8188 172.075 14.4268 171.696C15.0401 171.312 15.7681 171.12 16.6108 171.12C17.4748 171.12 18.2108 171.315 18.8188 171.704C19.4321 172.088 19.8988 172.624 20.2188 173.312C20.5441 173.995 20.7068 174.781 20.7068 175.672C20.7068 176.579 20.5441 177.376 20.2188 178.064C19.8935 178.747 19.4241 179.28 18.8108 179.664C18.1975 180.048 17.4641 180.24 16.6108 180.24ZM16.6108 179.112C17.5708 179.112 18.2855 178.795 18.7548 178.16C19.2241 177.52 19.4588 176.691 19.4588 175.672C19.4588 174.627 19.2215 173.795 18.7468 173.176C18.2775 172.557 17.5655 172.248 16.6108 172.248C15.9655 172.248 15.4321 172.395 15.0108 172.688C14.5948 172.976 14.2828 173.379 14.0748 173.896C13.8721 174.408 13.7708 175 13.7708 175.672C13.7708 176.712 14.0108 177.547 14.4908 178.176C14.9708 178.8 15.6775 179.112 16.6108 179.112ZM22.4636 180L22.4716 171.36H23.6556V175.52L27.5116 171.36H29.0796L25.0316 175.68L29.6076 180H27.8956L23.6556 175.84V180H22.4636ZM32.8811 180.24C32.2304 180.24 31.6837 180.123 31.2411 179.888C30.8037 179.653 30.4757 179.341 30.2571 178.952C30.0384 178.563 29.9291 178.139 29.9291 177.68C29.9291 177.211 30.0224 176.811 30.2091 176.48C30.4011 176.144 30.6597 175.869 30.9851 175.656C31.3157 175.443 31.6971 175.28 32.1291 175.168C32.5664 175.061 33.0491 174.968 33.5771 174.888C34.1104 174.803 34.6304 174.731 35.1371 174.672C35.6491 174.608 36.0971 174.547 36.4811 174.488L36.0651 174.744C36.0811 173.891 35.9157 173.259 35.5691 172.848C35.2224 172.437 34.6197 172.232 33.7611 172.232C33.1691 172.232 32.6677 172.365 32.2571 172.632C31.8517 172.899 31.5664 173.32 31.4011 173.896L30.2571 173.56C30.4544 172.787 30.8517 172.187 31.4491 171.76C32.0464 171.333 32.8224 171.12 33.7771 171.12C34.5664 171.12 35.2357 171.269 35.7851 171.568C36.3397 171.861 36.7317 172.288 36.9611 172.848C37.0677 173.099 37.1371 173.379 37.1691 173.688C37.2011 173.997 37.2171 174.312 37.2171 174.632V180H36.1691V177.832L36.4731 177.96C36.1797 178.701 35.7237 179.267 35.1051 179.656C34.4864 180.045 33.7451 180.24 32.8811 180.24ZM33.0171 179.224C33.5664 179.224 34.0464 179.125 34.4571 178.928C34.8677 178.731 35.1984 178.461 35.4491 178.12C35.6997 177.773 35.8624 177.384 35.9371 176.952C36.0011 176.675 36.0357 176.371 36.0411 176.04C36.0464 175.704 36.0491 175.453 36.0491 175.288L36.4971 175.52C36.0971 175.573 35.6624 175.627 35.1931 175.68C34.7291 175.733 34.2704 175.795 33.8171 175.864C33.3691 175.933 32.9637 176.016 32.6011 176.112C32.3557 176.181 32.1184 176.28 31.8891 176.408C31.6597 176.531 31.4704 176.696 31.3211 176.904C31.1771 177.112 31.1051 177.371 31.1051 177.68C31.1051 177.931 31.1664 178.173 31.2891 178.408C31.4171 178.643 31.6197 178.837 31.8971 178.992C32.1797 179.147 32.5531 179.224 33.0171 179.224ZM46.3828 180.24C45.5881 180.24 44.9161 180.04 44.3668 179.64C43.8175 179.235 43.4015 178.688 43.1188 178C42.8361 177.307 42.6948 176.531 42.6948 175.672C42.6948 174.797 42.8361 174.019 43.1188 173.336C43.4068 172.648 43.8281 172.107 44.3828 171.712C44.9375 171.317 45.6201 171.12 46.4308 171.12C47.2201 171.12 47.8975 171.32 48.4628 171.72C49.0281 172.12 49.4601 172.664 49.7588 173.352C50.0628 174.04 50.2148 174.813 50.2148 175.672C50.2148 176.536 50.0628 177.312 49.7588 178C49.4548 178.688 49.0175 179.235 48.4468 179.64C47.8761 180.04 47.1881 180.24 46.3828 180.24ZM42.4948 183.84V171.36H43.5508V177.864H43.6788V183.84H42.4948ZM46.2628 179.144C46.8655 179.144 47.3668 178.992 47.7668 178.688C48.1668 178.384 48.4655 177.971 48.6628 177.448C48.8655 176.92 48.9668 176.328 48.9668 175.672C48.9668 175.021 48.8681 174.435 48.6708 173.912C48.4735 173.389 48.1721 172.976 47.7668 172.672C47.3668 172.368 46.8575 172.216 46.2388 172.216C45.6361 172.216 45.1348 172.363 44.7348 172.656C44.3401 172.949 44.0441 173.357 43.8468 173.88C43.6495 174.397 43.5508 174.995 43.5508 175.672C43.5508 176.339 43.6495 176.936 43.8468 177.464C44.0441 177.987 44.3428 178.397 44.7428 178.696C45.1428 178.995 45.6495 179.144 46.2628 179.144ZM58.8356 171.36V180H57.6916V173.272L52.9556 180H51.9636V171.36H53.1076V178.032L57.8516 171.36H58.8356ZM64.6649 180.24C63.7956 180.24 63.0596 180.045 62.4569 179.656C61.8543 179.267 61.3956 178.731 61.0809 178.048C60.7716 177.36 60.6116 176.571 60.6009 175.68C60.6116 174.773 60.7769 173.979 61.0969 173.296C61.4169 172.608 61.8783 172.075 62.4809 171.696C63.0836 171.312 63.8143 171.12 64.6729 171.12C65.5476 171.12 66.3076 171.333 66.9529 171.76C67.6036 172.187 68.0489 172.771 68.2889 173.512L67.1369 173.88C66.9343 173.363 66.6116 172.963 66.1689 172.68C65.7316 172.392 65.2303 172.248 64.6649 172.248C64.0303 172.248 63.5049 172.395 63.0889 172.688C62.6729 172.976 62.3636 173.379 62.1609 173.896C61.9583 174.413 61.8543 175.008 61.8489 175.68C61.8596 176.715 62.0996 177.547 62.5689 178.176C63.0383 178.8 63.7369 179.112 64.6649 179.112C65.2516 179.112 65.7503 178.979 66.1609 178.712C66.5769 178.44 66.8916 178.045 67.1049 177.528L68.2889 177.88C67.9689 178.648 67.4996 179.235 66.8809 179.64C66.2623 180.04 65.5236 180.24 64.6649 180.24ZM70.8598 183.84L72.5318 179.304L72.5558 180.648L68.7718 171.36H70.0198L73.1238 179.128H72.6118L75.4758 171.36H76.6758L72.0358 183.84H70.8598ZM81.7213 180.24C80.8786 180.24 80.148 180.053 79.5293 179.68C78.916 179.307 78.4386 178.781 78.0973 178.104C77.756 177.427 77.5853 176.632 77.5853 175.72C77.5853 174.776 77.7533 173.96 78.0893 173.272C78.4253 172.584 78.8973 172.053 79.5053 171.68C80.1186 171.307 80.8413 171.12 81.6733 171.12C82.5266 171.12 83.2546 171.317 83.8573 171.712C84.46 172.101 84.916 172.661 85.2253 173.392C85.5346 174.123 85.676 174.995 85.6493 176.008H84.4493V175.592C84.428 174.472 84.1853 173.627 83.7213 173.056C83.2626 172.485 82.5906 172.2 81.7053 172.2C80.7773 172.2 80.0653 172.501 79.5693 173.104C79.0786 173.707 78.8333 174.565 78.8333 175.68C78.8333 176.768 79.0786 177.613 79.5693 178.216C80.0653 178.813 80.7666 179.112 81.6733 179.112C82.292 179.112 82.8306 178.971 83.2893 178.688C83.7533 178.4 84.1186 177.987 84.3853 177.448L85.4813 177.872C85.14 178.624 84.636 179.208 83.9693 179.624C83.308 180.035 82.5586 180.24 81.7213 180.24ZM78.4173 176.008V175.024H85.0173V176.008H78.4173ZM87.1823 180V171.36H88.2303L91.5983 178.432L94.9743 171.36H96.0143V180H94.8783V173.872L91.9743 180H91.2303L88.3263 173.872V180H87.1823ZM105.064 180.24C104.205 180.24 103.472 180.045 102.864 179.656C102.256 179.267 101.789 178.728 101.464 178.04C101.139 177.352 100.976 176.563 100.976 175.672C100.976 174.765 101.141 173.971 101.472 173.288C101.803 172.605 102.272 172.075 102.88 171.696C103.493 171.312 104.221 171.12 105.064 171.12C105.928 171.12 106.664 171.315 107.272 171.704C107.885 172.088 108.352 172.624 108.672 173.312C108.997 173.995 109.16 174.781 109.16 175.672C109.16 176.579 108.997 177.376 108.672 178.064C108.347 178.747 107.877 179.28 107.264 179.664C106.651 180.048 105.917 180.24 105.064 180.24ZM105.064 179.112C106.024 179.112 106.739 178.795 107.208 178.16C107.677 177.52 107.912 176.691 107.912 175.672C107.912 174.627 107.675 173.795 107.2 173.176C106.731 172.557 106.019 172.248 105.064 172.248C104.419 172.248 103.885 172.395 103.464 172.688C103.048 172.976 102.736 173.379 102.528 173.896C102.325 174.408 102.224 175 102.224 175.672C102.224 176.712 102.464 177.547 102.944 178.176C103.424 178.8 104.131 179.112 105.064 179.112ZM114.389 180.248C113.583 180.243 112.893 180.067 112.317 179.72C111.741 179.373 111.293 178.856 110.973 178.168C110.658 177.48 110.487 176.621 110.461 175.592C110.445 175.139 110.455 174.645 110.493 174.112C110.53 173.573 110.589 173.061 110.669 172.576C110.749 172.091 110.845 171.696 110.957 171.392C111.095 170.997 111.293 170.629 111.549 170.288C111.81 169.941 112.111 169.659 112.453 169.44C112.783 169.216 113.157 169.043 113.573 168.92C113.994 168.792 114.431 168.693 114.885 168.624C115.343 168.555 115.797 168.493 116.245 168.44C116.698 168.387 117.117 168.32 117.501 168.24L117.629 169.304C117.335 169.363 116.989 169.416 116.589 169.464C116.189 169.512 115.77 169.571 115.333 169.64C114.895 169.704 114.477 169.792 114.077 169.904C113.677 170.016 113.335 170.163 113.053 170.344C112.621 170.605 112.287 171 112.053 171.528C111.823 172.056 111.682 172.661 111.629 173.344C111.959 172.827 112.397 172.437 112.941 172.176C113.49 171.915 114.085 171.784 114.725 171.784C115.503 171.784 116.173 171.963 116.733 172.32C117.298 172.677 117.733 173.173 118.037 173.808C118.341 174.443 118.493 175.171 118.493 175.992C118.493 176.851 118.325 177.6 117.989 178.24C117.658 178.88 117.186 179.376 116.573 179.728C115.959 180.075 115.231 180.248 114.389 180.248ZM114.477 179.12C115.383 179.12 116.071 178.837 116.541 178.272C117.015 177.707 117.253 176.955 117.253 176.016C117.253 175.056 117.007 174.299 116.517 173.744C116.031 173.189 115.346 172.912 114.461 172.912C113.575 172.912 112.895 173.189 112.421 173.744C111.946 174.299 111.709 175.056 111.709 176.016C111.709 176.976 111.946 177.733 112.421 178.288C112.895 178.843 113.581 179.12 114.477 179.12ZM119.453 180V178.968C119.773 179.027 120.015 179.013 120.181 178.928C120.351 178.837 120.477 178.688 120.557 178.48C120.637 178.267 120.703 178.003 120.757 177.688C120.842 177.165 120.919 176.589 120.989 175.96C121.058 175.331 121.119 174.637 121.173 173.88C121.231 173.117 121.29 172.277 121.349 171.36H127.221V180H126.053V172.488H122.437C122.399 173.053 122.357 173.616 122.309 174.176C122.261 174.736 122.21 175.275 122.157 175.792C122.109 176.304 122.055 176.776 121.997 177.208C121.938 177.64 121.877 178.013 121.813 178.328C121.717 178.803 121.589 179.181 121.429 179.464C121.274 179.747 121.042 179.933 120.733 180.024C120.423 180.115 119.997 180.107 119.453 180ZM133.064 180.24C132.205 180.24 131.472 180.045 130.864 179.656C130.256 179.267 129.789 178.728 129.464 178.04C129.139 177.352 128.976 176.563 128.976 175.672C128.976 174.765 129.141 173.971 129.472 173.288C129.803 172.605 130.272 172.075 130.88 171.696C131.493 171.312 132.221 171.12 133.064 171.12C133.928 171.12 134.664 171.315 135.272 171.704C135.885 172.088 136.352 172.624 136.672 173.312C136.997 173.995 137.16 174.781 137.16 175.672C137.16 176.579 136.997 177.376 136.672 178.064C136.347 178.747 135.877 179.28 135.264 179.664C134.651 180.048 133.917 180.24 133.064 180.24ZM133.064 179.112C134.024 179.112 134.739 178.795 135.208 178.16C135.677 177.52 135.912 176.691 135.912 175.672C135.912 174.627 135.675 173.795 135.2 173.176C134.731 172.557 134.019 172.248 133.064 172.248C132.419 172.248 131.885 172.395 131.464 172.688C131.048 172.976 130.736 173.379 130.528 173.896C130.325 174.408 130.224 175 130.224 175.672C130.224 176.712 130.464 177.547 130.944 178.176C131.424 178.8 132.131 179.112 133.064 179.112ZM137.808 180L141.456 175.68L137.96 171.36H139.288L142.696 175.624V171.36H143.784V175.624L147.192 171.36H148.512L145.016 175.68L148.664 180H147.296L143.784 175.736V180H142.696V175.736L139.176 180H137.808ZM149.932 180L149.94 171.36H151.124V175.52L154.98 171.36H156.548L152.5 175.68L157.076 180H155.364L151.124 175.84V180H149.932ZM159.11 183.84L160.782 179.304L160.806 180.648L157.022 171.36H158.27L161.374 179.128H160.862L163.726 171.36H164.926L160.286 183.84H159.11ZM165.258 180V178.632H166.626V180H165.258ZM169.321 180V178.632H170.689V180H169.321ZM173.383 180V178.632H174.751V180H173.383Z" fill="#101010"/>
</g>
</svg>
