<svg width="139" height="35" viewBox="0 0 139 35" fill="none" xmlns="http://www.w3.org/2000/svg">
<g style="mix-blend-mode:difference">
<path d="M24.7735 8.50881C24.4901 8.22533 24.2916 8.05524 24.0081 7.94185C23.7246 7.8568 23.3278 7.82845 22.6191 7.80011C22.1655 7.80011 21.7403 7.68671 21.3434 7.51662C20.9465 7.34653 20.578 7.0914 20.2662 6.77957C19.5858 6.09921 19.2456 5.22041 19.2456 4.31326C19.2456 3.40611 19.5858 2.52732 20.2662 1.84696C20.9465 1.1666 21.8253 0.826416 22.7325 0.826416C23.6396 0.826416 24.5184 1.1666 25.1988 1.84696C25.5106 2.15879 25.7657 2.52732 25.9358 2.92419C26.1059 3.32107 26.191 3.77464 26.2193 4.19987C26.2193 4.88023 26.276 5.2771 26.361 5.56059C26.4461 5.84407 26.6162 6.01416 26.8997 6.29764C26.9847 6.38269 27.0414 6.43939 27.1264 6.52443C27.5233 6.92131 27.9486 7.31818 28.3454 7.74341C28.6856 8.08359 28.884 8.28203 29.1675 8.39542C29.451 8.50881 29.8479 8.53716 30.5849 8.53716C31.0385 8.53716 31.4637 8.65056 31.8606 8.82065C32.2575 8.99074 32.626 9.24587 32.9379 9.5577C33.6182 10.2381 33.9584 11.1169 33.9584 12.024C33.9584 12.9312 33.6182 13.81 32.9379 14.4903C32.2575 15.1707 31.3787 15.5109 30.4716 15.5109C30.2731 15.5109 30.0463 15.5109 29.8479 15.4542C29.2526 15.3124 27.8635 15.4542 26.1059 15.7943C24.6318 16.1062 22.9025 16.5881 21.23 17.2684C21.0883 17.3251 20.8615 17.4102 20.6347 17.4952C18.3668 18.374 13.4909 20.2734 13.4059 22.5129V22.9098C13.4059 23.2499 13.4626 23.5901 13.6043 23.902C13.8311 24.4689 14.313 25.0075 15.2768 25.4895C16.4958 26.1131 17.9983 26.7084 19.3023 27.077C20.3512 27.3605 21.2867 27.5022 21.8537 27.3321C22.2789 27.2187 22.7325 27.1904 23.1577 27.2187C23.5829 27.2754 24.0081 27.3888 24.405 27.6156C25.2555 28.0692 25.8224 28.8346 26.1059 29.685C26.361 30.5355 26.3043 31.4993 25.8508 32.3214C25.3972 33.1719 24.6318 33.7388 23.7813 34.0223C22.9309 34.2775 21.9671 34.2208 21.1449 33.7672C20.7481 33.5404 20.4079 33.2569 20.1244 32.9451C19.8409 32.6049 19.6141 32.208 19.4724 31.7828C19.2173 31.0457 18.6219 30.2236 17.7998 29.4299C16.8644 28.4944 15.6454 27.5872 14.4831 26.8785C14.228 26.7084 13.9445 26.5951 13.661 26.51C13.3775 26.425 13.0657 26.3683 12.7538 26.3683C12.1585 26.3683 11.6199 26.4533 11.0813 26.6234C10.7978 26.7084 10.5143 26.8218 10.2592 26.9636C9.35204 27.4738 8.30315 27.7857 7.16922 27.7857C5.46832 27.7857 3.90916 27.1053 2.77523 25.9714C1.6413 24.8375 0.960938 23.3066 0.960938 21.5774C0.960938 19.8481 1.6413 18.3173 2.77523 17.1834C3.90916 16.0495 5.43997 15.3691 7.16922 15.3691C8.89847 15.3691 10.0324 15.9077 11.1096 16.7865C11.3364 16.9566 11.5632 17.0984 11.8183 17.2118C12.0735 17.3251 12.357 17.4102 12.6688 17.4669C14.5398 17.8071 17.2896 17.2684 19.8976 16.3046C22.6474 15.2841 25.1988 13.81 26.3894 12.3925C26.5878 12.1657 26.7579 11.8539 26.843 11.5421C26.928 11.2586 26.9564 10.9468 26.8997 10.6633C26.8146 10.4365 26.6729 10.2664 26.4461 10.0113C26.2193 9.78449 25.9925 9.5577 25.7657 9.33092C25.4539 9.01908 25.1421 8.70725 24.8586 8.39542L24.7735 8.50881Z" fill="white"/>
<path d="M50.9393 19.99L46.2902 10.1531C46.0067 9.55777 45.383 9.16089 44.731 9.16089C44.079 9.16089 43.4553 9.55777 43.1719 10.1531L36.1131 24.9793C35.7162 25.8297 36.1131 26.8786 36.9636 27.3038C37.814 27.7007 38.8346 27.3038 39.2598 26.4534L40.904 22.9949H49.692C50.2873 22.9949 50.8259 22.683 51.1377 22.2011C51.7331 21.3223 51.2795 20.5569 50.9676 19.9616L50.9393 19.99ZM42.2647 20.0466L44.7027 14.9156L47.169 20.0466H42.2647Z" fill="white"/>
<path d="M53.4908 25.7447C53.4908 26.6802 52.697 27.4739 51.7332 27.4739C50.7693 27.4739 50.0039 26.6802 50.0039 25.7447C50.0039 24.8092 50.7977 23.9871 51.7332 23.9871C52.6687 23.9871 53.4908 24.7808 53.4908 25.7447Z" fill="white"/>
<path d="M61.0309 25.7447C61.0309 26.6802 60.2655 27.4739 59.3016 27.4739C58.3378 27.4739 57.5724 26.6802 57.5724 25.7447V12.6477H53.7737C52.8382 12.6477 52.0444 11.854 52.0444 10.8901C52.0444 9.92629 52.8382 9.16089 53.7737 9.16089H59.3016C60.3505 9.16089 61.0309 9.95464 61.0309 10.8901V25.7447Z" fill="white"/>
<path d="M66.5308 10.8901C66.5308 11.854 65.737 12.6477 64.8015 12.6477C63.866 12.6477 63.0439 11.854 63.0439 10.8901C63.0439 9.92629 63.8377 9.16089 64.8015 9.16089C65.7654 9.16089 66.5308 9.95464 66.5308 10.8901Z" fill="white"/>
<path d="M66.5308 10.8901C66.5308 11.854 65.737 12.6477 64.8015 12.6477C63.866 12.6477 63.0439 11.854 63.0439 10.8901C63.0439 9.92629 63.8377 9.16089 64.8015 9.16089C65.7654 9.16089 66.5308 9.95464 66.5308 10.8901Z" fill="white"/>
<path d="M76.8494 27.9557C71.5482 27.9557 67.2109 23.6468 67.2109 18.289C67.2109 12.9311 68.5717 12.5909 70.9246 10.72C71.6616 10.153 72.7672 10.2664 73.3625 11.0318C73.9295 11.7688 73.8161 12.8744 73.0507 13.4697C71.5482 14.6604 70.6978 16.3613 70.6978 18.289C70.6978 21.6908 73.4476 24.4689 76.8494 24.4689C80.2512 24.4689 83.0293 21.6908 83.0293 18.289C83.0293 14.8872 82.1789 14.6604 80.648 13.4697C79.8826 12.8744 79.7692 11.7688 80.3646 11.0318C80.9315 10.2664 82.0371 10.153 82.8025 10.72C85.1554 12.5909 86.5162 15.284 86.5162 18.289C86.5162 23.6184 82.1789 27.9557 76.8494 27.9557Z" fill="white"/>
<path d="M76.8777 8.67896C82.1789 8.67896 86.5162 12.9879 86.5162 18.3457C86.5162 23.7036 85.1554 24.0438 82.8025 25.9147C82.0655 26.4817 80.9599 26.3683 80.3646 25.6029C79.7976 24.8659 79.911 23.7603 80.6764 23.165C82.1789 21.9743 83.0293 20.2734 83.0293 18.3457C83.0293 14.9439 80.2795 12.1658 76.8777 12.1658C73.4759 12.1658 70.6978 14.9439 70.6978 18.3457C70.6978 21.7475 71.5482 21.9743 73.079 23.165C73.8445 23.7603 73.9578 24.8659 73.3625 25.6029C72.7956 26.3683 71.69 26.4817 70.9246 25.9147C68.5717 24.0438 67.2109 21.3507 67.2109 18.3457C67.2109 13.0163 71.5482 8.67896 76.8777 8.67896Z" fill="white"/>
<path d="M106.615 16.73L101.512 26.5952C101.2 27.1338 100.633 27.474 99.9815 27.474C99.3294 27.474 98.7908 27.1338 98.4506 26.5668L93.5747 16.9001V25.7731C93.5747 26.7086 92.781 27.5023 91.8171 27.5023C90.8533 27.5023 90.0879 26.7086 90.0879 25.7731V10.9186C90.0879 10.1248 90.5982 9.44445 91.3919 9.24601C92.1573 9.07592 92.9511 9.4161 93.3196 10.0965L99.9531 22.7115L106.785 10.0681C107.154 9.38775 107.976 9.04757 108.713 9.21766C109.478 9.4161 110.017 10.0965 110.017 10.8902V25.7447C110.017 26.6802 109.223 27.474 108.259 27.474C107.295 27.474 106.53 26.6802 106.53 25.7447V16.73H106.615Z" fill="white"/>
<path d="M115.233 25.7447V10.4082C115.233 9.47271 116.027 8.67896 116.962 8.67896C117.898 8.67896 118.72 9.47271 118.72 10.4082V25.7447C118.72 26.6801 117.926 27.4739 116.962 27.4739C115.998 27.4739 115.233 26.6801 115.233 25.7447Z" fill="white"/>
<path d="M132.271 24.724C132.979 24.7411 133.606 25.0557 133.878 25.5717C134.051 25.8977 134.057 26.2577 134.057 26.2832C134.057 27.077 133.49 27.9274 131.845 27.9274C131.066 27.9274 130.425 27.8622 129.827 27.7318C129.6 27.6808 128.758 27.4795 127.848 27.0486C125.065 25.7247 123.596 23.2981 123.596 23.2981C122.312 21.1777 122.227 19.1252 122.235 18.3173C122.275 13.9885 125.308 11.3238 125.683 11.0034C128.126 8.92551 130.814 8.73841 131.874 8.67888C132.821 8.62502 136.565 8.67888 138.082 10.6349C138.53 11.2104 138.757 12.4152 138.309 13.0729C137.827 13.7816 136.863 13.8099 135.899 13.2713C134.85 12.676 133.518 12.1374 131.874 12.1374C128.472 12.1374 125.722 14.8872 125.722 18.289C125.722 18.6915 125.592 20.2705 126.564 21.8098C127.287 22.9551 128.251 23.5192 128.753 23.8056C130.162 24.6106 131.525 24.7212 132.271 24.724Z" fill="white"/>
<path d="M135.474 24.469C135.474 23.5335 136.268 22.7397 137.203 22.7397C138.139 22.7397 138.961 23.5335 138.961 24.469C138.961 25.4045 138.167 26.2266 137.203 26.2266C136.24 26.2266 135.474 25.4328 135.474 24.469Z" fill="white"/>
<path d="M135.474 24.469C135.474 23.5335 136.268 22.7397 137.203 22.7397C138.139 22.7397 138.961 23.5335 138.961 24.469C138.961 25.4045 138.167 26.2266 137.203 26.2266C136.24 26.2266 135.474 25.4328 135.474 24.469Z" fill="white"/>
<path d="M48.5297 14.9155L53.3489 25.0075L50.2306 26.5667L44.7026 14.9155H48.5297Z" fill="white"/>
<path d="M64.8011 9.16089H58.0542V12.6477H64.8011V9.16089Z" fill="white"/>
<path d="M131.505 27.9275C132.27 27.9275 133.829 27.9275 135.445 27.3889C136.381 27.0771 137.033 26.7085 137.515 26.3967C137.968 26.1416 138.167 25.9998 138.337 25.773C138.96 24.8942 138.705 23.2784 137.855 22.8248C137.628 22.7114 137.401 22.7114 137.203 22.7114C136.012 22.7114 135.672 23.7036 134.198 24.2989C133.376 24.6391 132.61 24.6675 132.185 24.6958C131.278 24.7242 130.513 24.5541 130.031 24.4123" fill="white"/>
</g>
</svg>
