<svg width="17" height="18" viewBox="0 0 17 18" fill="none" xmlns="http://www.w3.org/2000/svg">
<path fill-rule="evenodd" clip-rule="evenodd" d="M12.232 0.666748H12.2889C13.0254 0.666742 13.6194 0.666736 14.0975 0.712197C14.5906 0.759081 15.0202 0.858385 15.4065 1.09512C15.7977 1.33482 16.1265 1.66369 16.3662 2.05483C16.603 2.44115 16.7023 2.87076 16.7491 3.36386C16.7946 3.84199 16.7946 4.43595 16.7946 5.17244V5.22939C16.7946 5.7133 16.7946 6.11715 16.7634 6.44516C16.7308 6.78807 16.6601 7.10764 16.4805 7.40076C16.3047 7.6876 16.0635 7.92877 15.7767 8.10455C15.4836 8.28417 15.164 8.35491 14.8211 8.38752C14.4931 8.41871 14.0892 8.4187 13.6053 8.41869L12.6845 8.41869C11.988 8.41871 11.4072 8.41873 10.9462 8.35674C10.4595 8.29131 10.0201 8.14738 9.66704 7.7943C9.31397 7.44123 9.17004 7.00184 9.1046 6.51518C9.04262 6.05411 9.04263 5.47332 9.04266 4.77683L9.04266 3.85612C9.04265 3.3722 9.04264 2.96829 9.07383 2.64028C9.10643 2.29736 9.17718 1.97779 9.3568 1.68468C9.53258 1.39784 9.77375 1.15667 10.0606 0.980889C10.3537 0.801268 10.6733 0.730523 11.0162 0.697918C11.3442 0.666729 11.7481 0.666738 12.232 0.666748ZM12.9186 5.51171C12.5191 5.51171 12.3193 5.51171 12.1783 5.41163C12.1285 5.37631 12.085 5.33285 12.0497 5.28308C11.9496 5.14203 11.9496 4.94226 11.9496 4.54273C11.9496 4.14319 11.9496 3.94341 12.0497 3.80235C12.085 3.75258 12.1285 3.70912 12.1783 3.67381C12.3193 3.57373 12.5191 3.57373 12.9186 3.57373C13.3182 3.57373 13.5179 3.57373 13.659 3.67381C13.7088 3.70912 13.7522 3.75258 13.7875 3.80235C13.8876 3.94341 13.8876 4.14318 13.8876 4.54272C13.8876 4.94226 13.8876 5.14203 13.7875 5.28308C13.7522 5.33285 13.7088 5.37631 13.659 5.41163C13.5179 5.51171 13.3182 5.51171 12.9186 5.51171Z" fill="#1C274C"/>
<path fill-rule="evenodd" clip-rule="evenodd" d="M6.86194 0.980889C6.56883 0.801268 6.24926 0.730523 5.90634 0.697918C5.57832 0.666729 5.17445 0.666738 4.69051 0.666748H4.63363C3.89716 0.666742 3.30317 0.666736 2.82504 0.712197C2.33195 0.759081 1.90234 0.858385 1.51602 1.09512C1.12487 1.33482 0.796 1.66369 0.556303 2.05483C0.319566 2.44115 0.220262 2.87076 0.173379 3.36386C0.127918 3.84199 0.127923 4.43593 0.12793 5.17241V5.2293C0.12792 5.71324 0.127911 6.11714 0.1591 6.44516C0.191704 6.78807 0.26245 7.10764 0.442071 7.40076C0.617848 7.6876 0.859018 7.92877 1.14586 8.10455C1.43897 8.28417 1.75854 8.35491 2.10146 8.38752C2.42946 8.41871 2.83329 8.4187 3.31719 8.41869L4.238 8.41869C4.93449 8.41871 5.5153 8.41873 5.97636 8.35674C6.46303 8.29131 6.90241 8.14738 7.25548 7.7943C7.60856 7.44123 7.75249 7.00184 7.81792 6.51518C7.87991 6.05412 7.87989 5.47333 7.87987 4.77685L7.87987 3.85613C7.87988 3.37223 7.87989 2.96828 7.8487 2.64028C7.8161 2.29736 7.74535 1.97779 7.56573 1.68468C7.38995 1.39784 7.14878 1.15667 6.86194 0.980889ZM3.26353 5.41163C3.40459 5.51171 3.60436 5.51171 4.0039 5.51171C4.40344 5.51171 4.60321 5.51171 4.74426 5.41163C4.79403 5.37631 4.83749 5.33285 4.87281 5.28308C4.97289 5.14203 4.97289 4.94226 4.97289 4.54272C4.97289 4.14318 4.97289 3.94341 4.87281 3.80235C4.83749 3.75258 4.79403 3.70912 4.74426 3.67381C4.60321 3.57373 4.40344 3.57373 4.0039 3.57373C3.60436 3.57373 3.40459 3.57373 3.26353 3.67381C3.21376 3.70912 3.17031 3.75258 3.13499 3.80235C3.03491 3.94341 3.03491 4.14318 3.03491 4.54272C3.03491 4.94226 3.03491 5.14203 3.13499 5.28308C3.17031 5.33285 3.21376 5.37631 3.26353 5.41163Z" fill="#1C274C"/>
<path fill-rule="evenodd" clip-rule="evenodd" d="M5.97636 9.64342C6.46303 9.70885 6.90241 9.85279 7.25548 10.2059C7.60856 10.5589 7.75249 10.9983 7.81792 11.485C7.87991 11.946 7.87989 12.5269 7.87987 13.2233L7.87987 14.1441C7.87988 14.628 7.87989 15.0319 7.8487 15.3599C7.8161 15.7028 7.74535 16.0224 7.56573 16.3155C7.38995 16.6023 7.14878 16.8435 6.86194 17.0193C6.56883 17.1989 6.24926 17.2696 5.90634 17.3022C5.57833 17.3334 5.17441 17.3334 4.69049 17.3334H4.63362C3.89713 17.3334 3.30318 17.3334 2.82504 17.288C2.33195 17.2411 1.90234 17.1418 1.51602 16.905C1.12487 16.6653 0.796 16.3365 0.556303 15.9453C0.319566 15.559 0.220262 15.1294 0.173379 14.6363C0.127918 14.1582 0.127923 13.5642 0.12793 12.8277V12.7708C0.12792 12.2869 0.127911 11.883 0.1591 11.555C0.191704 11.2121 0.26245 10.8925 0.442071 10.5994C0.617848 10.3126 0.859018 10.0714 1.14586 9.89562C1.43897 9.716 1.75854 9.64525 2.10146 9.61265C2.42947 9.58146 2.83333 9.58147 3.31724 9.58148L4.23801 9.58148C4.9345 9.58145 5.51529 9.58143 5.97636 9.64342ZM4.0039 14.4264C3.60436 14.4264 3.40459 14.4264 3.26353 14.3264C3.21376 14.291 3.17031 14.2476 3.13499 14.1978C3.03491 14.0568 3.03491 13.857 3.03491 13.4574C3.03491 13.0579 3.03491 12.8581 3.13499 12.7171C3.17031 12.6673 3.21376 12.6239 3.26353 12.5885C3.40459 12.4885 3.60436 12.4885 4.00389 12.4885C4.40342 12.4885 4.60321 12.4885 4.74426 12.5885C4.79403 12.6239 4.83749 12.6673 4.87281 12.7171C4.97289 12.8581 4.97289 13.0579 4.97289 13.4574C4.97289 13.857 4.97289 14.0568 4.87281 14.1978C4.83749 14.2476 4.79403 14.291 4.74426 14.3264C4.60321 14.4264 4.40344 14.4264 4.0039 14.4264Z" fill="#1C274C"/>
<path d="M9.04266 12.8463V12.876H10.2054C10.2054 12.3196 10.2062 11.946 10.2351 11.6612C10.2631 11.3861 10.3126 11.259 10.3688 11.1749C10.4394 11.0691 10.5303 10.9783 10.6361 10.9076C10.7202 10.8514 10.8473 10.8019 11.1224 10.7739C11.4072 10.745 11.7808 10.7443 12.3372 10.7443H13.8876V9.58148H12.3075C11.7884 9.58146 11.3553 9.58145 11.0047 9.61712C10.6377 9.65446 10.2971 9.73563 9.99009 9.94075C9.75732 10.0963 9.55746 10.2961 9.40193 10.5289C9.19681 10.8359 9.11564 11.1765 9.0783 11.5435C9.04263 11.8941 9.04264 12.3273 9.04266 12.8463Z" fill="#1C274C"/>
<path d="M16.7946 14.446V14.4264H15.6318C15.6318 14.7956 15.6315 15.0433 15.6184 15.2352C15.6057 15.4218 15.5828 15.5126 15.558 15.5724C15.4597 15.8099 15.2711 15.9985 15.0336 16.0969C14.9738 16.1216 14.883 16.1445 14.6963 16.1572C14.5045 16.1703 14.2568 16.1706 13.8876 16.1706H12.3372V17.3334H13.9072C14.2517 17.3334 14.5394 17.3334 14.7755 17.3173C15.0213 17.3005 15.2535 17.2644 15.4786 17.1711C16.001 16.9548 16.416 16.5398 16.6323 16.0174C16.7256 15.7923 16.7617 15.5601 16.7785 15.3143C16.7946 15.0782 16.7946 14.7906 16.7946 14.446Z" fill="#1C274C"/>
<path d="M10.2054 16.752C10.2054 17.0731 9.94515 17.3334 9.62405 17.3334C9.30296 17.3334 9.04266 17.0731 9.04266 16.752V14.4264H10.2054V16.752Z" fill="#1C274C"/>
<path d="M16.2132 9.58148C15.8921 9.58148 15.6318 9.84177 15.6318 10.1629V12.876H16.7946V10.1629C16.7946 9.84177 16.5343 9.58148 16.2132 9.58148Z" fill="#1C274C"/>
<path d="M11.858 12.8478C11.7946 13.001 11.7946 13.1951 11.7946 13.5834C11.7946 13.9717 11.7946 14.1658 11.858 14.319C11.9426 14.5232 12.1048 14.6854 12.309 14.77C12.4622 14.8334 12.6563 14.8334 13.0446 14.8334C13.4329 14.8334 13.627 14.8334 13.7802 14.77C13.9844 14.6854 14.1466 14.5232 14.2312 14.319C14.2946 14.1658 14.2946 13.9717 14.2946 13.5834C14.2946 13.1951 14.2946 13.001 14.2312 12.8478C14.1466 12.6437 13.9844 12.4814 13.7802 12.3968C13.627 12.3334 13.4329 12.3334 13.0446 12.3334C12.6563 12.3334 12.4622 12.3334 12.309 12.3968C12.1048 12.4814 11.9426 12.6437 11.858 12.8478Z" fill="#1C274C"/>
</svg>
