<svg width="17" height="18" viewBox="0 0 17 18" fill="none" xmlns="http://www.w3.org/2000/svg">
<path fill-rule="evenodd" clip-rule="evenodd" d="M5.3358 4.01249C5.33572 4.00837 5.33568 4.00423 5.33568 4.00008V3.16675C5.33568 1.44086 6.73479 0.041748 8.46068 0.041748C10.1866 0.041748 11.5857 1.44086 11.5857 3.16675V4.00008C11.5857 4.00423 11.5856 4.00837 11.5856 4.01249C12.6583 4.04469 13.3147 4.16041 13.8158 4.57631C14.5101 5.15254 14.693 6.1279 15.0587 8.07864L15.6837 11.412C16.1981 14.1551 16.4552 15.5266 15.7055 16.43C14.9557 17.3334 13.5603 17.3334 10.7694 17.3334H6.15198C3.36109 17.3334 1.96565 17.3334 1.21589 16.43C0.466125 15.5266 0.723289 14.1551 1.23762 11.412L1.86262 8.07864C2.22838 6.1279 2.41126 5.15254 3.10557 4.57631C3.6067 4.16041 4.26309 4.04469 5.3358 4.01249ZM6.58568 3.16675C6.58568 2.13121 7.42515 1.29175 8.46068 1.29175C9.49621 1.29175 10.3357 2.13121 10.3357 3.16675V4.00008C10.3357 4.00007 10.3357 4.00009 10.3357 4.00008C10.273 4.00006 10.2092 4.00008 10.1444 4.00008H6.77698C6.71216 4.00008 6.6484 4.00008 6.58568 4.0001C6.58568 4.00009 6.58568 4.00011 6.58568 4.0001V3.16675Z" fill="#1C274C"/>
</svg>
