<svg width="111" height="111" viewBox="0 0 111 111" fill="none" xmlns="http://www.w3.org/2000/svg">
<path d="M71.5029 42.041L72.2893 42.8274C78.4004 48.9385 81.456 51.9941 81.456 55.791C81.456 59.588 78.4004 62.6435 72.2893 68.7546L71.5029 69.541" stroke="white" stroke-width="1.5" stroke-linecap="round"/>
<path d="M61.3926 33.6553L55.4613 55.7911L49.53 77.9269" stroke="white" stroke-width="1.5" stroke-linecap="round"/>
<path d="M39.4189 42.041L38.6325 42.8274C32.5214 48.9385 29.4658 51.9941 29.4658 55.791C29.4658 59.588 32.5214 62.6435 38.6325 68.7546L39.4189 69.541" stroke="white" stroke-width="1.5" stroke-linecap="round"/>
<path d="M9.62793 55.7908C9.62793 34.1848 9.62793 23.3818 16.3401 16.6697C23.0522 9.95752 33.8552 9.95752 55.4613 9.95752C77.0673 9.95752 87.8703 9.95752 94.5825 16.6697C101.295 23.3818 101.295 34.1848 101.295 55.7908C101.295 77.3969 101.295 88.1999 94.5825 94.912C87.8703 101.624 77.0673 101.624 55.4613 101.624C33.8552 101.624 23.0522 101.624 16.3401 94.912C9.62793 88.1999 9.62793 77.3969 9.62793 55.7908Z" stroke="white" stroke-width="1.5"/>
</svg>
