<svg width="111" height="111" viewBox="0 0 111 111" fill="none" xmlns="http://www.w3.org/2000/svg">
<path d="M101.295 55.4695C101.295 61.5314 100.109 67.534 97.8057 73.1344C95.5024 78.7349 92.1263 83.8236 87.8703 88.11C83.6143 92.3965 78.5617 95.7966 73.0009 98.1164C67.4402 100.436 61.4802 101.63 55.4613 101.63C49.4423 101.63 43.4824 100.436 37.9216 98.1164C32.3608 95.7966 27.3082 92.3965 23.0522 88.11C18.7962 83.8236 15.4201 78.7349 13.1168 73.1344C10.8134 67.534 9.62793 61.5314 9.62793 55.4695C9.62793 49.4076 10.8134 43.405 13.1168 37.8045C15.4201 32.2041 18.7962 27.1154 23.0522 22.8289C27.3082 18.5425 32.3609 15.1423 37.9216 12.8225C43.4824 10.5028 49.4423 9.30878 55.4613 9.30878C61.4802 9.30878 67.4402 10.5028 73.0009 12.8226C78.5617 15.1423 83.6143 18.5425 87.8703 22.8289C92.1263 27.1154 95.5024 32.2041 97.8057 37.8046C100.109 43.405 101.295 49.4076 101.295 55.4695L101.295 55.4695Z" stroke="white" stroke-width="1.5"/>
<path d="M73.7946 55.4695C73.7946 61.5314 73.3204 67.534 72.3991 73.1344C71.4777 78.7349 70.1273 83.8236 68.4249 88.11C66.7225 92.3965 64.7014 95.7966 62.4771 98.1164C60.2528 100.436 57.8688 101.63 55.4613 101.63C53.0537 101.63 50.6697 100.436 48.4454 98.1164C46.2211 95.7966 44.2 92.3965 42.4976 88.11C40.7952 83.8236 39.4448 78.7349 38.5235 73.1344C37.6021 67.534 37.1279 61.5314 37.1279 55.4695C37.1279 49.4076 37.6021 43.405 38.5235 37.8045C39.4448 32.2041 40.7952 27.1154 42.4976 22.8289C44.2 18.5425 46.2211 15.1423 48.4454 12.8225C50.6697 10.5028 53.0537 9.30878 55.4613 9.30878C57.8688 9.30878 60.2528 10.5028 62.4771 12.8226C64.7014 15.1423 66.7225 18.5425 68.4249 22.8289C70.1273 27.1154 71.4777 32.2041 72.3991 37.8046C73.3204 43.405 73.7946 49.4076 73.7946 55.4695L73.7946 55.4695Z" stroke="white" stroke-width="1.5"/>
<path d="M9.62793 55.4695H101.295" stroke="white" stroke-width="1.5" stroke-linecap="round"/>
</svg>
