<svg width="111" height="111" viewBox="0 0 111 111" fill="none" xmlns="http://www.w3.org/2000/svg">
<path d="M33.0446 55.791H28.4613C19.8188 55.791 15.4976 55.791 12.8128 58.4759C10.1279 61.1607 10.1279 65.4819 10.1279 74.1243V83.291C10.1279 91.9334 10.1279 96.2546 12.8128 98.9395C15.4976 101.624 19.8188 101.624 28.4613 101.624H37.6279C46.2703 101.624 50.5916 101.624 53.2764 98.9395C55.9613 96.2546 55.9613 91.9334 55.9613 83.291V78.7077" stroke="white" stroke-width="1.5"/>
<path d="M55.9606 32.8745H51.3773C42.7349 32.8745 38.4137 32.8745 35.7288 35.5594C33.0439 38.2442 33.0439 42.5654 33.0439 51.2078V60.3745C33.0439 69.0169 33.0439 73.3381 35.7288 76.023C38.4137 78.7078 42.7349 78.7078 51.3773 78.7078H60.5439C69.1864 78.7078 73.5076 78.7078 76.1924 76.023C78.8773 73.3381 78.8773 69.0169 78.8773 60.3745V55.7912" stroke="white" stroke-width="1.5"/>
<path d="M55.9609 28.291C55.9609 19.6486 55.9609 15.3274 58.6458 12.6425C61.3306 9.95764 65.6519 9.95764 74.2943 9.95764H83.4609C92.1034 9.95764 96.4246 9.95764 99.1094 12.6425C101.794 15.3274 101.794 19.6486 101.794 28.291V37.4576C101.794 46.1001 101.794 50.4213 99.1094 53.1061C96.4246 55.791 92.1034 55.791 83.4609 55.791H74.2943C65.6519 55.791 61.3306 55.791 58.6458 53.1061C55.9609 50.4213 55.9609 46.1001 55.9609 37.4576V28.291Z" stroke="white" stroke-width="1.5"/>
</svg>
