<svg width="272" height="188" viewBox="0 0 272 188" fill="none" xmlns="http://www.w3.org/2000/svg">
<path d="M0.129899 94.1255C0.1299 75.6592 4.05247 59.3654 11.8976 45.2442C19.8635 31.1229 30.907 20.0794 45.0283 12.1135C59.1495 4.26841 75.4433 0.345834 93.9095 0.345835L177.913 0.345839C196.379 0.345839 212.673 4.26841 226.794 12.1136C240.915 20.0794 251.899 31.1229 259.744 45.2442C267.71 59.3655 271.693 75.6592 271.693 94.1255C271.693 112.592 267.71 128.825 259.744 142.826C251.899 156.947 240.915 167.991 226.794 175.956C212.673 183.922 196.379 187.905 177.913 187.905L93.9095 187.905C75.4433 187.905 59.1495 183.922 45.0283 175.956C30.907 167.99 19.8634 156.947 11.8976 142.826C4.05247 128.825 0.129899 112.592 0.129899 94.1255ZM41.5885 94.1255C41.5885 103.298 43.761 111.626 48.106 119.109C52.5717 126.592 58.4857 132.506 65.8481 136.851C73.3311 141.196 81.659 143.369 90.8318 143.369L181.172 143.369C190.465 143.369 198.793 141.196 206.155 136.851C213.638 132.506 219.553 126.592 223.898 119.109C228.363 111.626 230.596 103.298 230.596 94.1255C230.596 84.9527 228.363 76.6248 223.898 69.1417C219.553 61.6587 213.638 55.7446 206.155 51.3996C198.793 47.0546 190.465 44.8821 181.172 44.8821L90.8318 44.8821C81.659 44.8821 73.3311 47.0546 65.8481 51.3996C58.4857 55.7446 52.5717 61.6586 48.106 69.1417C43.761 76.6248 41.5885 84.9527 41.5885 94.1255Z" fill="#000809"/>
</svg>
